<mxfile modified="2024-03-25T10:52:00.543Z" host="Electron" agent="Mozilla/5.0 (Macintosh; Intel Mac OS X 10_15_7) AppleWebKit/537.36 (KHTML, like Gecko) draw.io/21.3.7 Chrome/112.0.5615.204 Electron/24.5.0 Safari/537.36" etag="ijrfCC9e34ICHj5aj92C" version="21.3.7" type="device" pages="6">
  <diagram id="2anVEklHBaeYAWqPGKSG" name="workflow">
    <mxGraphModel dx="1434" dy="795" grid="1" gridSize="1" guides="1" tooltips="1" connect="1" arrows="1" fold="1" page="1" pageScale="1" pageWidth="827" pageHeight="1169" math="0" shadow="0">
      <root>
        <mxCell id="0" />
        <mxCell id="1" parent="0" />
        <mxCell id="Vj13bascuwP1yXn1V5HO-1" value="" style="rounded=0;whiteSpace=wrap;html=1;strokeColor=none;" parent="1" vertex="1">
          <mxGeometry x="40" y="53" width="700" height="482" as="geometry" />
        </mxCell>
        <mxCell id="kO7ViERNrmj7xW9f-HTH-23" value="" style="endArrow=block;html=1;strokeWidth=3;exitX=0;exitY=0.5;exitDx=0;exitDy=0;curved=1;endFill=1;strokeColor=#666666;" parent="1" source="kO7ViERNrmj7xW9f-HTH-15" edge="1">
          <mxGeometry width="50" height="50" relative="1" as="geometry">
            <mxPoint x="57" y="593" as="sourcePoint" />
            <mxPoint x="105" y="122" as="targetPoint" />
            <Array as="points">
              <mxPoint x="105" y="283" />
            </Array>
          </mxGeometry>
        </mxCell>
        <mxCell id="kO7ViERNrmj7xW9f-HTH-25" value="" style="endArrow=block;html=1;strokeWidth=3;exitX=0;exitY=0.5;exitDx=0;exitDy=0;curved=1;endFill=1;strokeColor=#666666;" parent="1" source="0txfBXOn25xj_l2x-_3k-3" edge="1">
          <mxGeometry width="50" height="50" relative="1" as="geometry">
            <mxPoint x="62" y="593" as="sourcePoint" />
            <mxPoint x="140" y="122" as="targetPoint" />
            <Array as="points">
              <mxPoint x="140" y="230" />
            </Array>
          </mxGeometry>
        </mxCell>
        <mxCell id="kO7ViERNrmj7xW9f-HTH-27" value="" style="endArrow=block;html=1;strokeWidth=3;exitX=0;exitY=0.5;exitDx=0;exitDy=0;curved=1;endFill=1;entryX=1;entryY=1;entryDx=0;entryDy=0;strokeColor=#666666;" parent="1" source="0txfBXOn25xj_l2x-_3k-2" target="kO7ViERNrmj7xW9f-HTH-21" edge="1">
          <mxGeometry width="50" height="50" relative="1" as="geometry">
            <mxPoint x="62" y="593" as="sourcePoint" />
            <mxPoint x="157" y="135" as="targetPoint" />
            <Array as="points">
              <mxPoint x="169" y="171" />
            </Array>
          </mxGeometry>
        </mxCell>
        <mxCell id="kO7ViERNrmj7xW9f-HTH-28" value="" style="endArrow=block;html=1;strokeWidth=3;exitX=0;exitY=0.5;exitDx=0;exitDy=0;curved=1;endFill=1;entryX=0;entryY=1;entryDx=0;entryDy=0;strokeColor=#666666;" parent="1" source="kO7ViERNrmj7xW9f-HTH-20" target="kO7ViERNrmj7xW9f-HTH-21" edge="1">
          <mxGeometry width="50" height="50" relative="1" as="geometry">
            <mxPoint x="62" y="593" as="sourcePoint" />
            <mxPoint x="51" y="133" as="targetPoint" />
            <Array as="points">
              <mxPoint x="66" y="336" />
            </Array>
          </mxGeometry>
        </mxCell>
        <mxCell id="kO7ViERNrmj7xW9f-HTH-29" value="" style="endArrow=block;html=1;strokeWidth=3;exitX=0.5;exitY=1;exitDx=0;exitDy=0;entryX=0.5;entryY=0;entryDx=0;entryDy=0;endFill=1;strokeColor=#666666;" parent="1" source="0txfBXOn25xj_l2x-_3k-1" target="0txfBXOn25xj_l2x-_3k-2" edge="1">
          <mxGeometry width="50" height="50" relative="1" as="geometry">
            <mxPoint x="62" y="593" as="sourcePoint" />
            <mxPoint x="112" y="543" as="targetPoint" />
          </mxGeometry>
        </mxCell>
        <mxCell id="kO7ViERNrmj7xW9f-HTH-30" value="" style="endArrow=block;html=1;strokeWidth=3;exitX=0.5;exitY=1;exitDx=0;exitDy=0;endFill=1;strokeColor=#666666;" parent="1" source="0txfBXOn25xj_l2x-_3k-2" target="0txfBXOn25xj_l2x-_3k-3" edge="1">
          <mxGeometry width="50" height="50" relative="1" as="geometry">
            <mxPoint x="62" y="593" as="sourcePoint" />
            <mxPoint x="112" y="543" as="targetPoint" />
          </mxGeometry>
        </mxCell>
        <mxCell id="kO7ViERNrmj7xW9f-HTH-31" value="" style="endArrow=block;html=1;strokeWidth=3;exitX=0.5;exitY=1;exitDx=0;exitDy=0;endFill=1;strokeColor=#666666;" parent="1" source="0txfBXOn25xj_l2x-_3k-3" target="kO7ViERNrmj7xW9f-HTH-15" edge="1">
          <mxGeometry width="50" height="50" relative="1" as="geometry">
            <mxPoint x="62" y="593" as="sourcePoint" />
            <mxPoint x="112" y="543" as="targetPoint" />
          </mxGeometry>
        </mxCell>
        <mxCell id="kO7ViERNrmj7xW9f-HTH-32" value="" style="endArrow=block;html=1;strokeWidth=3;exitX=0.5;exitY=1;exitDx=0;exitDy=0;entryX=0.5;entryY=0;entryDx=0;entryDy=0;endFill=1;strokeColor=#666666;" parent="1" source="kO7ViERNrmj7xW9f-HTH-15" target="kO7ViERNrmj7xW9f-HTH-20" edge="1">
          <mxGeometry width="50" height="50" relative="1" as="geometry">
            <mxPoint x="62" y="593" as="sourcePoint" />
            <mxPoint x="112" y="543" as="targetPoint" />
          </mxGeometry>
        </mxCell>
        <mxCell id="kO7ViERNrmj7xW9f-HTH-18" value="" style="endArrow=block;html=1;strokeWidth=3;entryX=0;entryY=1;entryDx=0;entryDy=0;curved=1;endFill=1;strokeColor=#666666;" parent="1" target="kO7ViERNrmj7xW9f-HTH-17" edge="1">
          <mxGeometry width="50" height="50" relative="1" as="geometry">
            <mxPoint x="520" y="514" as="sourcePoint" />
            <mxPoint x="269" y="703" as="targetPoint" />
            <Array as="points">
              <mxPoint x="560" y="543" />
            </Array>
          </mxGeometry>
        </mxCell>
        <mxCell id="kO7ViERNrmj7xW9f-HTH-19" value="" style="endArrow=block;html=1;strokeWidth=3;exitX=0;exitY=0;exitDx=0;exitDy=0;curved=1;endFill=1;strokeColor=#666666;" parent="1" source="kO7ViERNrmj7xW9f-HTH-17" edge="1">
          <mxGeometry width="50" height="50" relative="1" as="geometry">
            <mxPoint x="219" y="753" as="sourcePoint" />
            <mxPoint x="520" y="466" as="targetPoint" />
            <Array as="points">
              <mxPoint x="570" y="424" />
            </Array>
          </mxGeometry>
        </mxCell>
        <mxCell id="kO7ViERNrmj7xW9f-HTH-13" value="" style="endArrow=block;html=1;strokeWidth=3;entryX=0;entryY=1;entryDx=0;entryDy=0;curved=1;endFill=1;strokeColor=#666666;" parent="1" target="kO7ViERNrmj7xW9f-HTH-12" edge="1">
          <mxGeometry width="50" height="50" relative="1" as="geometry">
            <mxPoint x="520" y="414" as="sourcePoint" />
            <mxPoint x="269" y="603" as="targetPoint" />
            <Array as="points">
              <mxPoint x="560" y="444" />
            </Array>
          </mxGeometry>
        </mxCell>
        <mxCell id="kO7ViERNrmj7xW9f-HTH-14" value="" style="endArrow=block;html=1;strokeWidth=3;exitX=0;exitY=0;exitDx=0;exitDy=0;curved=1;endFill=1;strokeColor=#666666;" parent="1" source="kO7ViERNrmj7xW9f-HTH-12" edge="1">
          <mxGeometry width="50" height="50" relative="1" as="geometry">
            <mxPoint x="219" y="653" as="sourcePoint" />
            <mxPoint x="520" y="366" as="targetPoint" />
            <Array as="points">
              <mxPoint x="570" y="324" />
            </Array>
          </mxGeometry>
        </mxCell>
        <mxCell id="kO7ViERNrmj7xW9f-HTH-7" value="" style="endArrow=block;html=1;strokeWidth=3;entryX=0;entryY=1;entryDx=0;entryDy=0;curved=1;endFill=1;strokeColor=#666666;" parent="1" target="0txfBXOn25xj_l2x-_3k-9" edge="1">
          <mxGeometry width="50" height="50" relative="1" as="geometry">
            <mxPoint x="520" y="314" as="sourcePoint" />
            <mxPoint x="269" y="503" as="targetPoint" />
            <Array as="points">
              <mxPoint x="559" y="344" />
            </Array>
          </mxGeometry>
        </mxCell>
        <mxCell id="kO7ViERNrmj7xW9f-HTH-9" value="" style="endArrow=block;html=1;strokeWidth=3;exitX=0;exitY=0;exitDx=0;exitDy=0;curved=1;endFill=1;strokeColor=#666666;" parent="1" source="0txfBXOn25xj_l2x-_3k-9" edge="1">
          <mxGeometry width="50" height="50" relative="1" as="geometry">
            <mxPoint x="219" y="553" as="sourcePoint" />
            <mxPoint x="520" y="266" as="targetPoint" />
            <Array as="points">
              <mxPoint x="570" y="224" />
            </Array>
          </mxGeometry>
        </mxCell>
        <mxCell id="PnO_bdmavo6gAUL0XvFZ-2" value="" style="endArrow=block;html=1;exitX=1;exitY=0.5;exitDx=0;exitDy=0;entryX=0;entryY=0.5;entryDx=0;entryDy=0;curved=1;strokeColor=#666666;endFill=1;strokeWidth=3;" parent="1" source="kO7ViERNrmj7xW9f-HTH-21" target="0txfBXOn25xj_l2x-_3k-1" edge="1">
          <mxGeometry width="50" height="50" relative="1" as="geometry">
            <mxPoint x="241" y="626" as="sourcePoint" />
            <mxPoint x="291" y="576" as="targetPoint" />
          </mxGeometry>
        </mxCell>
        <mxCell id="0txfBXOn25xj_l2x-_3k-1" value="&lt;font style=&quot;font-size: 18px&quot;&gt;Mathematical and numerical formulation&lt;/font&gt;" style="whiteSpace=wrap;html=1;fontSize=18;" parent="1" vertex="1">
          <mxGeometry x="216" y="66" width="348" height="48" as="geometry" />
        </mxCell>
        <mxCell id="0txfBXOn25xj_l2x-_3k-2" value="&lt;font style=&quot;font-size: 18px;&quot;&gt;Proof-of-principles and fast prototyping &lt;br style=&quot;font-size: 18px;&quot;&gt;in&amp;nbsp;MATLAB/Octave or Python&lt;/font&gt;" style="whiteSpace=wrap;html=1;fontSize=18;" parent="1" vertex="1">
          <mxGeometry x="216" y="166" width="348" height="48" as="geometry" />
        </mxCell>
        <mxCell id="kO7ViERNrmj7xW9f-HTH-21" value="&lt;span style=&quot;font-size: 18px;&quot;&gt;Algorithmic&lt;br style=&quot;font-size: 18px;&quot;&gt;&lt;/span&gt;&lt;font style=&quot;font-size: 18px;&quot;&gt;improvements&lt;/font&gt;" style="ellipse;whiteSpace=wrap;html=1;strokeWidth=1;fillColor=#ffffff;fontSize=18;verticalAlign=middle;strokeColor=default;perimeterSpacing=0;" parent="1" vertex="1">
          <mxGeometry x="50" y="58" width="140" height="64" as="geometry" />
        </mxCell>
        <mxCell id="kO7ViERNrmj7xW9f-HTH-17" value="&lt;font style=&quot;font-size: 18px;&quot;&gt;Performance&lt;br style=&quot;font-size: 18px;&quot;&gt;engineering&lt;/font&gt;" style="ellipse;whiteSpace=wrap;html=1;strokeWidth=1;fillColor=#ffffff;fontSize=18;" parent="1" vertex="1">
          <mxGeometry x="590" y="455" width="124" height="70" as="geometry" />
        </mxCell>
        <mxCell id="kO7ViERNrmj7xW9f-HTH-20" value="&lt;font style=&quot;font-size: 18px;&quot;&gt;GPU porting via full re-writing (CUDA) or compiler directives (OpenACC / OpenMP)&lt;/font&gt;" style="whiteSpace=wrap;html=1;fontSize=18;" parent="1" vertex="1">
          <mxGeometry x="216" y="466" width="348" height="48" as="geometry" />
        </mxCell>
        <mxCell id="kO7ViERNrmj7xW9f-HTH-12" value="&lt;font style=&quot;font-size: 18px;&quot;&gt;Performance&lt;br style=&quot;font-size: 18px;&quot;&gt;engineering&lt;/font&gt;" style="ellipse;whiteSpace=wrap;html=1;strokeWidth=1;fillColor=#ffffff;fontSize=18;" parent="1" vertex="1">
          <mxGeometry x="590" y="355" width="124" height="70" as="geometry" />
        </mxCell>
        <mxCell id="kO7ViERNrmj7xW9f-HTH-15" value="&lt;font style=&quot;font-size: 18px;&quot;&gt;Multi-threaded implementation &lt;br style=&quot;font-size: 18px;&quot;&gt;using compiler directives (OpenMP)&lt;/font&gt;" style="whiteSpace=wrap;html=1;fontSize=18;" parent="1" vertex="1">
          <mxGeometry x="216" y="366" width="348" height="48" as="geometry" />
        </mxCell>
        <mxCell id="0txfBXOn25xj_l2x-_3k-9" value="&lt;font style=&quot;font-size: 18px;&quot;&gt;Performance&lt;br style=&quot;font-size: 18px;&quot;&gt;engineering&lt;/font&gt;" style="ellipse;whiteSpace=wrap;html=1;strokeWidth=1;fillColor=#ffffff;fontSize=18;" parent="1" vertex="1">
          <mxGeometry x="590" y="255" width="124" height="70" as="geometry" />
        </mxCell>
        <mxCell id="0txfBXOn25xj_l2x-_3k-3" value="&lt;font style=&quot;font-size: 18px;&quot;&gt;Fast execution on a single CPU core&amp;nbsp;&lt;br style=&quot;font-size: 18px;&quot;&gt;with C, C++ or FORTRAN&lt;/font&gt;" style="whiteSpace=wrap;html=1;fontSize=18;" parent="1" vertex="1">
          <mxGeometry x="216" y="266" width="348" height="48" as="geometry" />
        </mxCell>
      </root>
    </mxGraphModel>
  </diagram>
  <diagram name="workflow-1" id="mpm20GsWGSfxoIJAYkeA">
    <mxGraphModel dx="1434" dy="795" grid="1" gridSize="1" guides="1" tooltips="1" connect="1" arrows="1" fold="1" page="1" pageScale="1" pageWidth="827" pageHeight="1169" math="0" shadow="0">
      <root>
        <mxCell id="egyV4jRa8Sf4ermFLgKd-0" />
        <mxCell id="egyV4jRa8Sf4ermFLgKd-1" parent="egyV4jRa8Sf4ermFLgKd-0" />
        <mxCell id="egyV4jRa8Sf4ermFLgKd-2" value="" style="rounded=0;whiteSpace=wrap;html=1;strokeColor=default;align=left;" parent="egyV4jRa8Sf4ermFLgKd-1" vertex="1">
          <mxGeometry x="29" y="53" width="722" height="534" as="geometry" />
        </mxCell>
        <mxCell id="egyV4jRa8Sf4ermFLgKd-7" value="" style="endArrow=classic;html=1;strokeWidth=3;exitX=0.5;exitY=1;exitDx=0;exitDy=0;entryX=0.5;entryY=0;entryDx=0;entryDy=0;endFill=1;strokeColor=#666666;" parent="egyV4jRa8Sf4ermFLgKd-1" source="egyV4jRa8Sf4ermFLgKd-18" target="egyV4jRa8Sf4ermFLgKd-19" edge="1">
          <mxGeometry width="50" height="50" relative="1" as="geometry">
            <mxPoint x="62" y="593" as="sourcePoint" />
            <mxPoint x="112" y="543" as="targetPoint" />
          </mxGeometry>
        </mxCell>
        <mxCell id="egyV4jRa8Sf4ermFLgKd-8" value="" style="endArrow=classic;html=1;strokeWidth=3;exitX=0.5;exitY=1;exitDx=0;exitDy=0;endFill=1;strokeColor=#666666;" parent="egyV4jRa8Sf4ermFLgKd-1" source="egyV4jRa8Sf4ermFLgKd-19" target="egyV4jRa8Sf4ermFLgKd-26" edge="1">
          <mxGeometry width="50" height="50" relative="1" as="geometry">
            <mxPoint x="62" y="593" as="sourcePoint" />
            <mxPoint x="112" y="543" as="targetPoint" />
          </mxGeometry>
        </mxCell>
        <mxCell id="egyV4jRa8Sf4ermFLgKd-9" value="" style="endArrow=classic;html=1;strokeWidth=3;exitX=0.5;exitY=1;exitDx=0;exitDy=0;endFill=1;strokeColor=#666666;" parent="egyV4jRa8Sf4ermFLgKd-1" source="egyV4jRa8Sf4ermFLgKd-26" target="egyV4jRa8Sf4ermFLgKd-24" edge="1">
          <mxGeometry width="50" height="50" relative="1" as="geometry">
            <mxPoint x="62" y="593" as="sourcePoint" />
            <mxPoint x="112" y="543" as="targetPoint" />
          </mxGeometry>
        </mxCell>
        <mxCell id="egyV4jRa8Sf4ermFLgKd-10" value="" style="endArrow=classic;html=1;strokeWidth=3;exitX=0.5;exitY=1;exitDx=0;exitDy=0;entryX=0.5;entryY=0;entryDx=0;entryDy=0;endFill=1;strokeColor=#666666;" parent="egyV4jRa8Sf4ermFLgKd-1" source="egyV4jRa8Sf4ermFLgKd-24" target="egyV4jRa8Sf4ermFLgKd-22" edge="1">
          <mxGeometry width="50" height="50" relative="1" as="geometry">
            <mxPoint x="62" y="593" as="sourcePoint" />
            <mxPoint x="112" y="543" as="targetPoint" />
          </mxGeometry>
        </mxCell>
        <mxCell id="egyV4jRa8Sf4ermFLgKd-11" value="" style="endArrow=classic;html=1;strokeWidth=3;entryX=0;entryY=1;entryDx=0;entryDy=0;curved=1;endFill=1;strokeColor=#666666;" parent="egyV4jRa8Sf4ermFLgKd-1" target="egyV4jRa8Sf4ermFLgKd-21" edge="1">
          <mxGeometry width="50" height="50" relative="1" as="geometry">
            <mxPoint x="520" y="514" as="sourcePoint" />
            <mxPoint x="269" y="703" as="targetPoint" />
            <Array as="points">
              <mxPoint x="560" y="543" />
            </Array>
          </mxGeometry>
        </mxCell>
        <mxCell id="egyV4jRa8Sf4ermFLgKd-12" value="" style="endArrow=classic;html=1;strokeWidth=3;exitX=0;exitY=0;exitDx=0;exitDy=0;curved=1;endFill=1;strokeColor=#666666;" parent="egyV4jRa8Sf4ermFLgKd-1" source="egyV4jRa8Sf4ermFLgKd-21" edge="1">
          <mxGeometry width="50" height="50" relative="1" as="geometry">
            <mxPoint x="219" y="753" as="sourcePoint" />
            <mxPoint x="520" y="466" as="targetPoint" />
            <Array as="points">
              <mxPoint x="570" y="425" />
            </Array>
          </mxGeometry>
        </mxCell>
        <mxCell id="egyV4jRa8Sf4ermFLgKd-13" value="" style="endArrow=classic;html=1;strokeWidth=3;entryX=0;entryY=1;entryDx=0;entryDy=0;curved=1;endFill=1;strokeColor=#666666;" parent="egyV4jRa8Sf4ermFLgKd-1" target="egyV4jRa8Sf4ermFLgKd-23" edge="1">
          <mxGeometry width="50" height="50" relative="1" as="geometry">
            <mxPoint x="520" y="414" as="sourcePoint" />
            <mxPoint x="269" y="603" as="targetPoint" />
            <Array as="points">
              <mxPoint x="560" y="444" />
            </Array>
          </mxGeometry>
        </mxCell>
        <mxCell id="egyV4jRa8Sf4ermFLgKd-14" value="" style="endArrow=classic;html=1;strokeWidth=3;exitX=0;exitY=0;exitDx=0;exitDy=0;curved=1;endFill=1;strokeColor=#666666;" parent="egyV4jRa8Sf4ermFLgKd-1" source="egyV4jRa8Sf4ermFLgKd-23" edge="1">
          <mxGeometry width="50" height="50" relative="1" as="geometry">
            <mxPoint x="219" y="653" as="sourcePoint" />
            <mxPoint x="520" y="366" as="targetPoint" />
            <Array as="points">
              <mxPoint x="570" y="325" />
            </Array>
          </mxGeometry>
        </mxCell>
        <mxCell id="egyV4jRa8Sf4ermFLgKd-15" value="" style="endArrow=classic;html=1;strokeWidth=3;entryX=0;entryY=1;entryDx=0;entryDy=0;curved=1;endFill=1;strokeColor=#666666;" parent="egyV4jRa8Sf4ermFLgKd-1" target="egyV4jRa8Sf4ermFLgKd-25" edge="1">
          <mxGeometry width="50" height="50" relative="1" as="geometry">
            <mxPoint x="520" y="314" as="sourcePoint" />
            <mxPoint x="269" y="503" as="targetPoint" />
            <Array as="points">
              <mxPoint x="559" y="344" />
            </Array>
          </mxGeometry>
        </mxCell>
        <mxCell id="egyV4jRa8Sf4ermFLgKd-16" value="" style="endArrow=classic;html=1;strokeWidth=3;exitX=0;exitY=0;exitDx=0;exitDy=0;curved=1;endFill=1;strokeColor=#666666;entryX=0;entryY=0;entryDx=0;entryDy=0;" parent="egyV4jRa8Sf4ermFLgKd-1" source="egyV4jRa8Sf4ermFLgKd-25" edge="1">
          <mxGeometry width="50" height="50" relative="1" as="geometry">
            <mxPoint x="219" y="553" as="sourcePoint" />
            <mxPoint x="520" y="266" as="targetPoint" />
            <Array as="points">
              <mxPoint x="570" y="226" />
            </Array>
          </mxGeometry>
        </mxCell>
        <mxCell id="egyV4jRa8Sf4ermFLgKd-17" value="" style="endArrow=classic;html=1;exitX=0.5;exitY=0;exitDx=0;exitDy=0;entryX=0;entryY=0.5;entryDx=0;entryDy=0;curved=1;strokeColor=#666666;endFill=1;strokeWidth=3;" parent="egyV4jRa8Sf4ermFLgKd-1" source="egyV4jRa8Sf4ermFLgKd-20" target="egyV4jRa8Sf4ermFLgKd-18" edge="1">
          <mxGeometry width="50" height="50" relative="1" as="geometry">
            <mxPoint x="241" y="626" as="sourcePoint" />
            <mxPoint x="291" y="576" as="targetPoint" />
            <Array as="points">
              <mxPoint x="122" y="135" />
            </Array>
          </mxGeometry>
        </mxCell>
        <mxCell id="QYbC0FB7tB9uAdcHWqdw-0" value="" style="endArrow=classic;html=1;exitX=0;exitY=0.5;exitDx=0;exitDy=0;entryX=0.5;entryY=1;entryDx=0;entryDy=0;curved=1;strokeWidth=3;strokeColor=#666666;endFill=1;" parent="egyV4jRa8Sf4ermFLgKd-1" source="egyV4jRa8Sf4ermFLgKd-22" target="egyV4jRa8Sf4ermFLgKd-20" edge="1">
          <mxGeometry width="50" height="50" relative="1" as="geometry">
            <mxPoint x="387" y="434" as="sourcePoint" />
            <mxPoint x="437" y="384" as="targetPoint" />
            <Array as="points">
              <mxPoint x="120" y="433" />
            </Array>
          </mxGeometry>
        </mxCell>
        <mxCell id="egyV4jRa8Sf4ermFLgKd-18" value="&lt;font style=&quot;font-size: 18px&quot;&gt;Numerical model&lt;/font&gt;" style="whiteSpace=wrap;html=1;fontSize=18;" parent="egyV4jRa8Sf4ermFLgKd-1" vertex="1">
          <mxGeometry x="216" y="66" width="348" height="48" as="geometry" />
        </mxCell>
        <mxCell id="egyV4jRa8Sf4ermFLgKd-19" value="&lt;font style=&quot;font-size: 18px;&quot;&gt;Proof-of-concepts and basic prototyping &lt;br style=&quot;font-size: 18px;&quot;&gt;in&amp;nbsp;MATLAB/Octave or Python&lt;/font&gt;" style="whiteSpace=wrap;html=1;fontSize=18;" parent="egyV4jRa8Sf4ermFLgKd-1" vertex="1">
          <mxGeometry x="216" y="166" width="348" height="48" as="geometry" />
        </mxCell>
        <mxCell id="egyV4jRa8Sf4ermFLgKd-20" value="Model change" style="ellipse;whiteSpace=wrap;html=1;strokeWidth=1;fillColor=#ffffff;fontSize=18;verticalAlign=middle;strokeColor=default;perimeterSpacing=0;" parent="egyV4jRa8Sf4ermFLgKd-1" vertex="1">
          <mxGeometry x="50" y="266" width="140" height="48" as="geometry" />
        </mxCell>
        <mxCell id="egyV4jRa8Sf4ermFLgKd-21" value="&lt;font style=&quot;font-size: 18px;&quot;&gt;Performance&lt;br style=&quot;font-size: 18px;&quot;&gt;engineering&lt;/font&gt;" style="ellipse;whiteSpace=wrap;html=1;strokeWidth=1;fillColor=#ffffff;fontSize=18;" parent="egyV4jRa8Sf4ermFLgKd-1" vertex="1">
          <mxGeometry x="590" y="455" width="140" height="70" as="geometry" />
        </mxCell>
        <mxCell id="egyV4jRa8Sf4ermFLgKd-22" value="&lt;font style=&quot;font-size: 18px;&quot;&gt;GPU porting via full re-writing (CUDA) or compiler directives (OpenACC / OpenMP)&lt;/font&gt;" style="whiteSpace=wrap;html=1;fontSize=18;" parent="egyV4jRa8Sf4ermFLgKd-1" vertex="1">
          <mxGeometry x="216" y="466" width="348" height="48" as="geometry" />
        </mxCell>
        <mxCell id="egyV4jRa8Sf4ermFLgKd-23" value="&lt;font style=&quot;font-size: 18px;&quot;&gt;Performance&lt;br style=&quot;font-size: 18px;&quot;&gt;engineering&lt;/font&gt;" style="ellipse;whiteSpace=wrap;html=1;strokeWidth=1;fillColor=#ffffff;fontSize=18;" parent="egyV4jRa8Sf4ermFLgKd-1" vertex="1">
          <mxGeometry x="590" y="355" width="140" height="70" as="geometry" />
        </mxCell>
        <mxCell id="egyV4jRa8Sf4ermFLgKd-24" value="&lt;font style=&quot;font-size: 18px;&quot;&gt;Multi-threaded implementation &lt;br style=&quot;font-size: 18px;&quot;&gt;using compiler directives (OpenMP)&lt;/font&gt;" style="whiteSpace=wrap;html=1;fontSize=18;" parent="egyV4jRa8Sf4ermFLgKd-1" vertex="1">
          <mxGeometry x="216" y="366" width="348" height="48" as="geometry" />
        </mxCell>
        <mxCell id="egyV4jRa8Sf4ermFLgKd-25" value="&lt;font style=&quot;font-size: 18px;&quot;&gt;Performance&lt;br style=&quot;font-size: 18px;&quot;&gt;engineering&lt;/font&gt;" style="ellipse;whiteSpace=wrap;html=1;strokeWidth=1;fillColor=#ffffff;fontSize=18;" parent="egyV4jRa8Sf4ermFLgKd-1" vertex="1">
          <mxGeometry x="590" y="255" width="140" height="70" as="geometry" />
        </mxCell>
        <mxCell id="egyV4jRa8Sf4ermFLgKd-26" value="&lt;font style=&quot;font-size: 18px;&quot;&gt;Fast execution on a single CPU core&amp;nbsp;&lt;br style=&quot;font-size: 18px;&quot;&gt;with C, C++ or FORTRAN&lt;/font&gt;" style="whiteSpace=wrap;html=1;fontSize=18;" parent="egyV4jRa8Sf4ermFLgKd-1" vertex="1">
          <mxGeometry x="216" y="266" width="348" height="48" as="geometry" />
        </mxCell>
        <mxCell id="3Lf8iPmWjqp4T6e1wOFu-0" value="(a)" style="text;html=1;strokeColor=none;fillColor=none;align=center;verticalAlign=middle;whiteSpace=wrap;rounded=0;fontSize=18;fontStyle=1" vertex="1" parent="egyV4jRa8Sf4ermFLgKd-1">
          <mxGeometry x="35" y="58" width="30" height="30" as="geometry" />
        </mxCell>
      </root>
    </mxGraphModel>
  </diagram>
  <diagram id="wy5-jtAhYJnIG4ehQgnF" name="workflow-dsl">
    <mxGraphModel dx="1434" dy="795" grid="1" gridSize="1" guides="1" tooltips="1" connect="1" arrows="1" fold="1" page="1" pageScale="1" pageWidth="827" pageHeight="1169" math="0" shadow="0">
      <root>
        <mxCell id="R5Gcfgz0cbDUhETHTB6b-0" />
        <mxCell id="R5Gcfgz0cbDUhETHTB6b-1" parent="R5Gcfgz0cbDUhETHTB6b-0" />
        <mxCell id="5qjGRNeVHYGNqxFWSQkn-0" value="" style="rounded=0;whiteSpace=wrap;html=1;strokeColor=none;" parent="R5Gcfgz0cbDUhETHTB6b-1" vertex="1">
          <mxGeometry x="40" y="53" width="700" height="534" as="geometry" />
        </mxCell>
        <mxCell id="K4f7BcvlZdv8hN7PhDFQ-2" value="" style="endArrow=block;html=1;strokeWidth=3;entryX=0;entryY=1;entryDx=0;entryDy=0;curved=1;endFill=1;strokeColor=#666666;" parent="R5Gcfgz0cbDUhETHTB6b-1" target="K4f7BcvlZdv8hN7PhDFQ-1" edge="1">
          <mxGeometry width="50" height="50" relative="1" as="geometry">
            <mxPoint x="520" y="314" as="sourcePoint" />
            <mxPoint x="269" y="503" as="targetPoint" />
            <Array as="points">
              <mxPoint x="560" y="345" />
            </Array>
          </mxGeometry>
        </mxCell>
        <mxCell id="K4f7BcvlZdv8hN7PhDFQ-3" value="" style="endArrow=block;html=1;strokeWidth=3;exitX=0;exitY=0;exitDx=0;exitDy=0;curved=1;endFill=1;strokeColor=#666666;" parent="R5Gcfgz0cbDUhETHTB6b-1" source="K4f7BcvlZdv8hN7PhDFQ-1" edge="1">
          <mxGeometry width="50" height="50" relative="1" as="geometry">
            <mxPoint x="219" y="553" as="sourcePoint" />
            <mxPoint x="520" y="266" as="targetPoint" />
            <Array as="points">
              <mxPoint x="570" y="226" />
            </Array>
          </mxGeometry>
        </mxCell>
        <mxCell id="w28MoCD8PEhIDQAgiVLd-10" value="" style="endArrow=block;html=1;strokeWidth=3;exitX=0.5;exitY=1;exitDx=0;exitDy=0;entryX=0.75;entryY=0;entryDx=0;entryDy=0;endFill=1;curved=1;strokeColor=#666666;" parent="R5Gcfgz0cbDUhETHTB6b-1" source="K4f7BcvlZdv8hN7PhDFQ-4" target="w28MoCD8PEhIDQAgiVLd-5" edge="1">
          <mxGeometry width="50" height="50" relative="1" as="geometry">
            <mxPoint x="53" y="568" as="sourcePoint" />
            <mxPoint x="275" y="369" as="targetPoint" />
          </mxGeometry>
        </mxCell>
        <mxCell id="w28MoCD8PEhIDQAgiVLd-11" value="" style="endArrow=block;html=1;strokeWidth=3;exitX=0.5;exitY=1;exitDx=0;exitDy=0;entryX=0.25;entryY=0;entryDx=0;entryDy=0;endFill=1;strokeColor=#666666;" parent="R5Gcfgz0cbDUhETHTB6b-1" source="K4f7BcvlZdv8hN7PhDFQ-4" target="Eae85vYHP8G5gAY39oT0-4" edge="1">
          <mxGeometry width="50" height="50" relative="1" as="geometry">
            <mxPoint x="53" y="568" as="sourcePoint" />
            <mxPoint x="103" y="518" as="targetPoint" />
          </mxGeometry>
        </mxCell>
        <mxCell id="w28MoCD8PEhIDQAgiVLd-12" value="" style="endArrow=block;html=1;strokeWidth=3;exitX=0.75;exitY=1;exitDx=0;exitDy=0;endFill=1;strokeColor=#666666;entryX=0.75;entryY=0;entryDx=0;entryDy=0;" parent="R5Gcfgz0cbDUhETHTB6b-1" source="w28MoCD8PEhIDQAgiVLd-5" target="0CEjkackRRL91DYxXz3S-0" edge="1">
          <mxGeometry width="50" height="50" relative="1" as="geometry">
            <mxPoint x="63" y="567" as="sourcePoint" />
            <mxPoint x="113" y="517" as="targetPoint" />
          </mxGeometry>
        </mxCell>
        <mxCell id="w28MoCD8PEhIDQAgiVLd-13" value="" style="endArrow=block;html=1;strokeWidth=3;exitX=0.25;exitY=1;exitDx=0;exitDy=0;endFill=1;strokeColor=#666666;entryX=0.25;entryY=0;entryDx=0;entryDy=0;" parent="R5Gcfgz0cbDUhETHTB6b-1" source="Eae85vYHP8G5gAY39oT0-4" target="0CEjkackRRL91DYxXz3S-2" edge="1">
          <mxGeometry width="50" height="50" relative="1" as="geometry">
            <mxPoint x="43" y="567" as="sourcePoint" />
            <mxPoint x="93" y="517" as="targetPoint" />
          </mxGeometry>
        </mxCell>
        <mxCell id="w28MoCD8PEhIDQAgiVLd-14" value="&lt;font style=&quot;font-size: 16px&quot;&gt;&lt;b&gt;...&lt;/b&gt;&lt;/font&gt;" style="text;html=1;strokeColor=none;fillColor=none;align=center;verticalAlign=bottom;whiteSpace=wrap;rounded=0;" parent="R5Gcfgz0cbDUhETHTB6b-1" vertex="1">
          <mxGeometry x="370" y="379" width="40" height="20" as="geometry" />
        </mxCell>
        <mxCell id="w28MoCD8PEhIDQAgiVLd-15" value="&lt;font style=&quot;font-size: 16px&quot;&gt;&lt;b&gt;...&lt;/b&gt;&lt;/font&gt;" style="text;html=1;strokeColor=none;fillColor=none;align=center;verticalAlign=bottom;whiteSpace=wrap;rounded=0;" parent="R5Gcfgz0cbDUhETHTB6b-1" vertex="1">
          <mxGeometry x="370" y="480" width="40" height="20" as="geometry" />
        </mxCell>
        <mxCell id="C_dY76pZPGnciI3RffP5-0" value="" style="endArrow=block;html=1;strokeWidth=3;exitX=0;exitY=0.5;exitDx=0;exitDy=0;entryX=1;entryY=1;entryDx=0;entryDy=0;curved=1;endFill=1;strokeColor=#666666;" parent="R5Gcfgz0cbDUhETHTB6b-1" source="6CvxTK8rpNanl9DEnO7T-0" target="osYczmKRM-gSJlbs34r0-0" edge="1">
          <mxGeometry width="50" height="50" relative="1" as="geometry">
            <mxPoint x="53" y="567" as="sourcePoint" />
            <mxPoint x="103" y="517" as="targetPoint" />
            <Array as="points">
              <mxPoint x="190" y="190" />
            </Array>
          </mxGeometry>
        </mxCell>
        <mxCell id="C_dY76pZPGnciI3RffP5-1" value="" style="endArrow=block;html=1;strokeWidth=3;exitX=1;exitY=0;exitDx=0;exitDy=0;entryX=0;entryY=0.5;entryDx=0;entryDy=0;curved=1;endFill=1;strokeColor=#666666;" parent="R5Gcfgz0cbDUhETHTB6b-1" source="osYczmKRM-gSJlbs34r0-0" target="YSQmvexpPoW-MQY-o0eW-0" edge="1">
          <mxGeometry width="50" height="50" relative="1" as="geometry">
            <mxPoint x="53" y="567" as="sourcePoint" />
            <mxPoint x="103" y="517" as="targetPoint" />
            <Array as="points">
              <mxPoint x="182" y="90" />
            </Array>
          </mxGeometry>
        </mxCell>
        <mxCell id="C_dY76pZPGnciI3RffP5-2" value="" style="endArrow=block;html=1;strokeWidth=3;exitX=0.5;exitY=1;exitDx=0;exitDy=0;endFill=1;strokeColor=#666666;" parent="R5Gcfgz0cbDUhETHTB6b-1" source="YSQmvexpPoW-MQY-o0eW-0" target="6CvxTK8rpNanl9DEnO7T-0" edge="1">
          <mxGeometry width="50" height="50" relative="1" as="geometry">
            <mxPoint x="53" y="567" as="sourcePoint" />
            <mxPoint x="103" y="517" as="targetPoint" />
          </mxGeometry>
        </mxCell>
        <mxCell id="C_dY76pZPGnciI3RffP5-3" value="" style="endArrow=block;html=1;strokeWidth=3;exitX=0.5;exitY=1;exitDx=0;exitDy=0;entryX=0.5;entryY=0;entryDx=0;entryDy=0;endFill=1;strokeColor=#666666;" parent="R5Gcfgz0cbDUhETHTB6b-1" source="6CvxTK8rpNanl9DEnO7T-0" target="K4f7BcvlZdv8hN7PhDFQ-4" edge="1">
          <mxGeometry width="50" height="50" relative="1" as="geometry">
            <mxPoint x="53" y="567" as="sourcePoint" />
            <mxPoint x="103" y="517" as="targetPoint" />
          </mxGeometry>
        </mxCell>
        <mxCell id="is08rgIPwxZMQHH9jlnU-1" value="" style="endArrow=none;dashed=1;html=1;strokeWidth=2;strokeColor=#FF0000;" parent="R5Gcfgz0cbDUhETHTB6b-1" edge="1">
          <mxGeometry width="50" height="50" relative="1" as="geometry">
            <mxPoint x="50" y="240" as="sourcePoint" />
            <mxPoint x="728" y="240" as="targetPoint" />
          </mxGeometry>
        </mxCell>
        <mxCell id="is08rgIPwxZMQHH9jlnU-3" value="&lt;b style=&quot;font-size: 18px&quot;&gt;Domain practitioners&lt;/b&gt;" style="text;html=1;strokeColor=none;fillColor=none;align=left;verticalAlign=middle;whiteSpace=wrap;rounded=0;fontSize=18;spacingLeft=5;fontColor=#FF0000;" parent="R5Gcfgz0cbDUhETHTB6b-1" vertex="1">
          <mxGeometry x="48" y="213" width="195" height="24" as="geometry" />
        </mxCell>
        <mxCell id="is08rgIPwxZMQHH9jlnU-4" value="&lt;b style=&quot;font-size: 18px&quot;&gt;Computer scientists&lt;/b&gt;" style="text;html=1;strokeColor=none;fillColor=none;align=left;verticalAlign=middle;whiteSpace=wrap;rounded=0;fontSize=18;spacingLeft=5;fontColor=#FF0000;" parent="R5Gcfgz0cbDUhETHTB6b-1" vertex="1">
          <mxGeometry x="48" y="240" width="197" height="24" as="geometry" />
        </mxCell>
        <mxCell id="Eae85vYHP8G5gAY39oT0-2" value="" style="endArrow=block;html=1;strokeWidth=3;entryX=0;entryY=1;entryDx=0;entryDy=0;curved=1;endFill=1;strokeColor=#666666;" parent="R5Gcfgz0cbDUhETHTB6b-1" target="Eae85vYHP8G5gAY39oT0-1" edge="1">
          <mxGeometry width="50" height="50" relative="1" as="geometry">
            <mxPoint x="530" y="414" as="sourcePoint" />
            <mxPoint x="279" y="603" as="targetPoint" />
            <Array as="points">
              <mxPoint x="576" y="444" />
            </Array>
          </mxGeometry>
        </mxCell>
        <mxCell id="Eae85vYHP8G5gAY39oT0-3" value="" style="endArrow=block;html=1;strokeWidth=3;exitX=0;exitY=0;exitDx=0;exitDy=0;curved=1;endFill=1;strokeColor=#666666;" parent="R5Gcfgz0cbDUhETHTB6b-1" source="Eae85vYHP8G5gAY39oT0-1" edge="1">
          <mxGeometry width="50" height="50" relative="1" as="geometry">
            <mxPoint x="229" y="653" as="sourcePoint" />
            <mxPoint x="530" y="366" as="targetPoint" />
            <Array as="points">
              <mxPoint x="580" y="328" />
            </Array>
          </mxGeometry>
        </mxCell>
        <mxCell id="w28MoCD8PEhIDQAgiVLd-3" value="" style="endArrow=block;html=1;strokeWidth=3;entryX=1;entryY=1;entryDx=0;entryDy=0;curved=1;endFill=1;strokeColor=#666666;" parent="R5Gcfgz0cbDUhETHTB6b-1" target="w28MoCD8PEhIDQAgiVLd-2" edge="1">
          <mxGeometry width="50" height="50" relative="1" as="geometry">
            <mxPoint x="250" y="414" as="sourcePoint" />
            <mxPoint x="-252" y="602" as="targetPoint" />
            <Array as="points">
              <mxPoint x="210" y="444" />
            </Array>
          </mxGeometry>
        </mxCell>
        <mxCell id="w28MoCD8PEhIDQAgiVLd-4" value="" style="endArrow=block;html=1;strokeWidth=3;curved=1;endFill=1;entryX=1;entryY=0;entryDx=0;entryDy=0;exitX=1;exitY=0;exitDx=0;exitDy=0;strokeColor=#666666;" parent="R5Gcfgz0cbDUhETHTB6b-1" source="w28MoCD8PEhIDQAgiVLd-2" edge="1">
          <mxGeometry width="50" height="50" relative="1" as="geometry">
            <mxPoint x="-1" y="365" as="sourcePoint" />
            <mxPoint x="250" y="366" as="targetPoint" />
            <Array as="points">
              <mxPoint x="200" y="326" />
            </Array>
          </mxGeometry>
        </mxCell>
        <mxCell id="YSQmvexpPoW-MQY-o0eW-0" value="&lt;font style=&quot;font-size: 18px&quot;&gt;Mathematical and numerical formulation&lt;/font&gt;" style="whiteSpace=wrap;html=1;fontSize=18;" parent="R5Gcfgz0cbDUhETHTB6b-1" vertex="1">
          <mxGeometry x="216" y="66" width="348" height="48" as="geometry" />
        </mxCell>
        <mxCell id="6CvxTK8rpNanl9DEnO7T-0" value="&lt;span style=&quot;font-size: 18px&quot;&gt;High-level implementation using a&lt;br style=&quot;font-size: 18px&quot;&gt;&lt;b style=&quot;font-size: 18px&quot;&gt;domain specific language (DSL)&lt;/b&gt;&lt;/span&gt;" style="whiteSpace=wrap;html=1;fontSize=18;" parent="R5Gcfgz0cbDUhETHTB6b-1" vertex="1">
          <mxGeometry x="216" y="166" width="348" height="48" as="geometry" />
        </mxCell>
        <mxCell id="0CEjkackRRL91DYxXz3S-0" value="&lt;span style=&quot;font-size: 17px;&quot;&gt;Generated code &lt;i style=&quot;font-size: 17px;&quot;&gt;#1&lt;/i&gt;&lt;/span&gt;" style="whiteSpace=wrap;html=1;fontSize=17;" parent="R5Gcfgz0cbDUhETHTB6b-1" vertex="1">
          <mxGeometry x="205" y="466" width="160" height="48" as="geometry" />
        </mxCell>
        <mxCell id="0CEjkackRRL91DYxXz3S-2" value="&lt;span style=&quot;font-size: 17px;&quot;&gt;Generated code &lt;i style=&quot;font-size: 17px;&quot;&gt;#n&lt;/i&gt;&lt;/span&gt;" style="whiteSpace=wrap;html=1;fontSize=17;" parent="R5Gcfgz0cbDUhETHTB6b-1" vertex="1">
          <mxGeometry x="415" y="466" width="160" height="48" as="geometry" />
        </mxCell>
        <mxCell id="osYczmKRM-gSJlbs34r0-0" value="&lt;span style=&quot;font-size: 18px;&quot;&gt;Algorithmic&lt;br style=&quot;font-size: 18px;&quot;&gt;&lt;/span&gt;&lt;font style=&quot;font-size: 18px;&quot;&gt;improvements&lt;/font&gt;" style="ellipse;whiteSpace=wrap;html=1;strokeWidth=1;fillColor=#ffffff;fontSize=18;verticalAlign=middle;" parent="R5Gcfgz0cbDUhETHTB6b-1" vertex="1">
          <mxGeometry x="50" y="108" width="140" height="64" as="geometry" />
        </mxCell>
        <mxCell id="K4f7BcvlZdv8hN7PhDFQ-1" value="&lt;span style=&quot;font-size: 18px;&quot;&gt;Domain-driven optimizations&lt;/span&gt;" style="ellipse;whiteSpace=wrap;html=1;strokeWidth=1;fillColor=#ffffff;fontSize=18;verticalAlign=middle;" parent="R5Gcfgz0cbDUhETHTB6b-1" vertex="1">
          <mxGeometry x="590" y="255" width="140" height="70" as="geometry" />
        </mxCell>
        <mxCell id="K4f7BcvlZdv8hN7PhDFQ-4" value="&lt;span style=&quot;font-size: 17px;&quot;&gt;Hierarchy of tree-like code representations featuring different levels of abstraction&lt;/span&gt;" style="whiteSpace=wrap;html=1;fontSize=17;" parent="R5Gcfgz0cbDUhETHTB6b-1" vertex="1">
          <mxGeometry x="216" y="266" width="348" height="48" as="geometry" />
        </mxCell>
        <mxCell id="Eae85vYHP8G5gAY39oT0-1" value="&lt;font style=&quot;font-size: 18px;&quot;&gt;Performance&lt;br style=&quot;font-size: 18px;&quot;&gt;engineering&lt;/font&gt;" style="ellipse;whiteSpace=wrap;html=1;strokeWidth=1;fillColor=#ffffff;fontSize=18;" parent="R5Gcfgz0cbDUhETHTB6b-1" vertex="1">
          <mxGeometry x="601" y="355" width="124" height="70" as="geometry" />
        </mxCell>
        <mxCell id="Eae85vYHP8G5gAY39oT0-4" value="&lt;span style=&quot;font-size: 18px;&quot;&gt;Backend &lt;i style=&quot;font-size: 18px;&quot;&gt;#n&lt;/i&gt;&lt;/span&gt;" style="whiteSpace=wrap;html=1;fontSize=18;" parent="R5Gcfgz0cbDUhETHTB6b-1" vertex="1">
          <mxGeometry x="415" y="366" width="160" height="48" as="geometry" />
        </mxCell>
        <mxCell id="w28MoCD8PEhIDQAgiVLd-2" value="&lt;font style=&quot;font-size: 18px;&quot;&gt;Performance&lt;br style=&quot;font-size: 18px;&quot;&gt;engineering&lt;/font&gt;" style="ellipse;whiteSpace=wrap;html=1;strokeWidth=1;fillColor=#ffffff;fontSize=18;" parent="R5Gcfgz0cbDUhETHTB6b-1" vertex="1">
          <mxGeometry x="55" y="355" width="124" height="70" as="geometry" />
        </mxCell>
        <mxCell id="w28MoCD8PEhIDQAgiVLd-5" value="&lt;span style=&quot;font-size: 18px;&quot;&gt;Backend &lt;i style=&quot;font-size: 18px;&quot;&gt;#1&lt;/i&gt;&lt;/span&gt;" style="whiteSpace=wrap;html=1;fontSize=18;" parent="R5Gcfgz0cbDUhETHTB6b-1" vertex="1">
          <mxGeometry x="205" y="366" width="160" height="48" as="geometry" />
        </mxCell>
      </root>
    </mxGraphModel>
  </diagram>
  <diagram name="workflow-dsl-1" id="-lyRvLt0mw7bCOagbSJ0">
    <mxGraphModel dx="1434" dy="795" grid="1" gridSize="1" guides="1" tooltips="1" connect="1" arrows="1" fold="1" page="1" pageScale="1" pageWidth="827" pageHeight="1169" math="0" shadow="0">
      <root>
        <mxCell id="libhglb1-kH7YescJten-0" />
        <mxCell id="libhglb1-kH7YescJten-1" parent="libhglb1-kH7YescJten-0" />
        <mxCell id="libhglb1-kH7YescJten-2" value="" style="rounded=0;whiteSpace=wrap;html=1;strokeColor=default;" parent="libhglb1-kH7YescJten-1" vertex="1">
          <mxGeometry x="29" y="53" width="722" height="534" as="geometry" />
        </mxCell>
        <mxCell id="libhglb1-kH7YescJten-5" value="" style="endArrow=classic;html=1;strokeWidth=3;exitX=0.5;exitY=1;exitDx=0;exitDy=0;entryX=0.75;entryY=0;entryDx=0;entryDy=0;endFill=1;curved=1;strokeColor=#666666;" parent="libhglb1-kH7YescJten-1" source="libhglb1-kH7YescJten-28" target="libhglb1-kH7YescJten-32" edge="1">
          <mxGeometry width="50" height="50" relative="1" as="geometry">
            <mxPoint x="53" y="628" as="sourcePoint" />
            <mxPoint x="275" y="429" as="targetPoint" />
          </mxGeometry>
        </mxCell>
        <mxCell id="libhglb1-kH7YescJten-6" value="" style="endArrow=classic;html=1;strokeWidth=3;exitX=0.5;exitY=1;exitDx=0;exitDy=0;entryX=0.25;entryY=0;entryDx=0;entryDy=0;endFill=1;strokeColor=#666666;" parent="libhglb1-kH7YescJten-1" source="libhglb1-kH7YescJten-28" target="libhglb1-kH7YescJten-30" edge="1">
          <mxGeometry width="50" height="50" relative="1" as="geometry">
            <mxPoint x="53" y="628" as="sourcePoint" />
            <mxPoint x="103" y="578" as="targetPoint" />
          </mxGeometry>
        </mxCell>
        <mxCell id="libhglb1-kH7YescJten-7" value="" style="endArrow=classic;html=1;strokeWidth=3;exitX=0.75;exitY=1;exitDx=0;exitDy=0;endFill=1;strokeColor=#666666;entryX=0.75;entryY=0;entryDx=0;entryDy=0;" parent="libhglb1-kH7YescJten-1" source="libhglb1-kH7YescJten-32" target="libhglb1-kH7YescJten-24" edge="1">
          <mxGeometry width="50" height="50" relative="1" as="geometry">
            <mxPoint x="63" y="627" as="sourcePoint" />
            <mxPoint x="113" y="577" as="targetPoint" />
          </mxGeometry>
        </mxCell>
        <mxCell id="libhglb1-kH7YescJten-8" value="" style="endArrow=classic;html=1;strokeWidth=3;exitX=0.25;exitY=1;exitDx=0;exitDy=0;endFill=1;strokeColor=#666666;entryX=0.25;entryY=0;entryDx=0;entryDy=0;" parent="libhglb1-kH7YescJten-1" source="libhglb1-kH7YescJten-30" target="libhglb1-kH7YescJten-25" edge="1">
          <mxGeometry width="50" height="50" relative="1" as="geometry">
            <mxPoint x="43" y="627" as="sourcePoint" />
            <mxPoint x="93" y="577" as="targetPoint" />
          </mxGeometry>
        </mxCell>
        <mxCell id="libhglb1-kH7YescJten-9" value="&lt;font style=&quot;font-size: 16px&quot;&gt;&lt;b&gt;...&lt;/b&gt;&lt;/font&gt;" style="text;html=1;strokeColor=none;fillColor=none;align=center;verticalAlign=bottom;whiteSpace=wrap;rounded=0;" parent="libhglb1-kH7YescJten-1" vertex="1">
          <mxGeometry x="370" y="439" width="40" height="20" as="geometry" />
        </mxCell>
        <mxCell id="libhglb1-kH7YescJten-10" value="&lt;font style=&quot;font-size: 16px&quot;&gt;&lt;b&gt;...&lt;/b&gt;&lt;/font&gt;" style="text;html=1;strokeColor=none;fillColor=none;align=center;verticalAlign=bottom;whiteSpace=wrap;rounded=0;" parent="libhglb1-kH7YescJten-1" vertex="1">
          <mxGeometry x="370" y="540" width="40" height="20" as="geometry" />
        </mxCell>
        <mxCell id="libhglb1-kH7YescJten-13" value="" style="endArrow=classic;html=1;strokeWidth=3;exitX=0.5;exitY=1;exitDx=0;exitDy=0;endFill=1;strokeColor=#666666;" parent="libhglb1-kH7YescJten-1" source="libhglb1-kH7YescJten-22" target="libhglb1-kH7YescJten-23" edge="1">
          <mxGeometry width="50" height="50" relative="1" as="geometry">
            <mxPoint x="53" y="627" as="sourcePoint" />
            <mxPoint x="103" y="577" as="targetPoint" />
          </mxGeometry>
        </mxCell>
        <mxCell id="libhglb1-kH7YescJten-14" value="" style="endArrow=classic;html=1;strokeWidth=3;exitX=0.5;exitY=1;exitDx=0;exitDy=0;entryX=0.5;entryY=0;entryDx=0;entryDy=0;endFill=1;strokeColor=#666666;" parent="libhglb1-kH7YescJten-1" source="libhglb1-kH7YescJten-23" target="libhglb1-kH7YescJten-28" edge="1">
          <mxGeometry width="50" height="50" relative="1" as="geometry">
            <mxPoint x="53" y="627" as="sourcePoint" />
            <mxPoint x="103" y="577" as="targetPoint" />
          </mxGeometry>
        </mxCell>
        <mxCell id="libhglb1-kH7YescJten-18" value="" style="endArrow=classic;html=1;strokeWidth=3;entryX=0;entryY=1;entryDx=0;entryDy=0;curved=1;endFill=1;strokeColor=#666666;" parent="libhglb1-kH7YescJten-1" target="libhglb1-kH7YescJten-29" edge="1">
          <mxGeometry width="50" height="50" relative="1" as="geometry">
            <mxPoint x="530" y="474" as="sourcePoint" />
            <mxPoint x="279" y="663" as="targetPoint" />
            <Array as="points">
              <mxPoint x="571" y="504" />
            </Array>
          </mxGeometry>
        </mxCell>
        <mxCell id="libhglb1-kH7YescJten-19" value="" style="endArrow=classic;html=1;strokeWidth=3;exitX=0;exitY=0;exitDx=0;exitDy=0;curved=1;endFill=1;strokeColor=#666666;" parent="libhglb1-kH7YescJten-1" source="libhglb1-kH7YescJten-29" edge="1">
          <mxGeometry width="50" height="50" relative="1" as="geometry">
            <mxPoint x="229" y="713" as="sourcePoint" />
            <mxPoint x="530" y="426" as="targetPoint" />
            <Array as="points">
              <mxPoint x="580" y="386" />
            </Array>
          </mxGeometry>
        </mxCell>
        <mxCell id="libhglb1-kH7YescJten-20" value="" style="endArrow=classic;html=1;strokeWidth=3;entryX=1;entryY=1;entryDx=0;entryDy=0;curved=1;endFill=1;strokeColor=#666666;" parent="libhglb1-kH7YescJten-1" target="libhglb1-kH7YescJten-31" edge="1">
          <mxGeometry width="50" height="50" relative="1" as="geometry">
            <mxPoint x="250" y="474" as="sourcePoint" />
            <mxPoint x="-252" y="662" as="targetPoint" />
            <Array as="points">
              <mxPoint x="210" y="504" />
            </Array>
          </mxGeometry>
        </mxCell>
        <mxCell id="libhglb1-kH7YescJten-21" value="" style="endArrow=classic;html=1;strokeWidth=3;curved=1;endFill=1;entryX=1;entryY=0;entryDx=0;entryDy=0;exitX=1;exitY=0;exitDx=0;exitDy=0;strokeColor=#666666;" parent="libhglb1-kH7YescJten-1" source="libhglb1-kH7YescJten-31" edge="1">
          <mxGeometry width="50" height="50" relative="1" as="geometry">
            <mxPoint x="-1" y="425" as="sourcePoint" />
            <mxPoint x="250" y="426" as="targetPoint" />
            <Array as="points">
              <mxPoint x="200" y="386" />
            </Array>
          </mxGeometry>
        </mxCell>
        <mxCell id="ziNTsDlTzGzPs904oiZq-2" value="" style="group" parent="libhglb1-kH7YescJten-1" vertex="1" connectable="0">
          <mxGeometry x="50" y="242" width="678" height="112.3" as="geometry" />
        </mxCell>
        <mxCell id="libhglb1-kH7YescJten-15" value="" style="endArrow=none;dashed=1;html=1;strokeWidth=3;strokeColor=#FF0000;" parent="ziNTsDlTzGzPs904oiZq-2" edge="1">
          <mxGeometry width="50" height="50" relative="1" as="geometry">
            <mxPoint y="28" as="sourcePoint" />
            <mxPoint x="678" y="28" as="targetPoint" />
          </mxGeometry>
        </mxCell>
        <mxCell id="libhglb1-kH7YescJten-16" value="&lt;b style=&quot;font-size: 18px&quot;&gt;Domain scientists&lt;/b&gt;" style="text;html=1;strokeColor=none;fillColor=none;align=left;verticalAlign=middle;whiteSpace=wrap;rounded=0;fontSize=18;spacingLeft=5;fontColor=#0000FF;" parent="ziNTsDlTzGzPs904oiZq-2" vertex="1">
          <mxGeometry width="195" height="24" as="geometry" />
        </mxCell>
        <mxCell id="libhglb1-kH7YescJten-17" value="&lt;b style=&quot;font-size: 18px&quot;&gt;Computer experts&lt;/b&gt;" style="text;html=1;strokeColor=none;fillColor=none;align=left;verticalAlign=middle;whiteSpace=wrap;rounded=0;fontSize=18;spacingLeft=5;fontColor=#FF0000;" parent="ziNTsDlTzGzPs904oiZq-2" vertex="1">
          <mxGeometry y="31" width="197" height="24" as="geometry" />
        </mxCell>
        <mxCell id="ziNTsDlTzGzPs904oiZq-0" value="&lt;b style=&quot;font-size: 18px&quot;&gt;Science interface&lt;/b&gt;" style="text;html=1;strokeColor=none;fillColor=none;align=right;verticalAlign=middle;whiteSpace=wrap;rounded=0;fontSize=18;spacingLeft=5;fontColor=#0000FF;spacingRight=5;" parent="ziNTsDlTzGzPs904oiZq-2" vertex="1">
          <mxGeometry x="483" width="195" height="24" as="geometry" />
        </mxCell>
        <mxCell id="ziNTsDlTzGzPs904oiZq-1" value="&lt;b style=&quot;font-size: 18px&quot;&gt;HPC implementation&lt;/b&gt;" style="text;html=1;strokeColor=none;fillColor=none;align=right;verticalAlign=middle;whiteSpace=wrap;rounded=0;fontSize=18;spacingLeft=5;fontColor=#FF0000;spacingRight=5;" parent="ziNTsDlTzGzPs904oiZq-2" vertex="1">
          <mxGeometry x="483" y="31" width="195" height="24" as="geometry" />
        </mxCell>
        <mxCell id="5xhgKyyS4BgydLVgIGOn-0" value="" style="endArrow=none;dashed=1;html=1;strokeWidth=3;strokeColor=#0000FF;" parent="ziNTsDlTzGzPs904oiZq-2" edge="1">
          <mxGeometry width="50" height="50" relative="1" as="geometry">
            <mxPoint x="9" y="28" as="sourcePoint" />
            <mxPoint x="673" y="28" as="targetPoint" />
          </mxGeometry>
        </mxCell>
        <mxCell id="ziNTsDlTzGzPs904oiZq-3" value="" style="endArrow=classic;html=1;exitX=0;exitY=0.5;exitDx=0;exitDy=0;entryX=1;entryY=1;entryDx=0;entryDy=0;curved=1;strokeWidth=3;strokeColor=#666666;movable=1;resizable=1;rotatable=1;deletable=1;editable=1;locked=0;connectable=1;" parent="libhglb1-kH7YescJten-1" source="libhglb1-kH7YescJten-23" target="libhglb1-kH7YescJten-26" edge="1">
          <mxGeometry width="50" height="50" relative="1" as="geometry">
            <mxPoint x="387" y="358" as="sourcePoint" />
            <mxPoint x="437" y="308" as="targetPoint" />
            <Array as="points">
              <mxPoint x="184" y="190" />
            </Array>
          </mxGeometry>
        </mxCell>
        <mxCell id="ziNTsDlTzGzPs904oiZq-4" value="" style="endArrow=classic;html=1;exitX=1;exitY=0;exitDx=0;exitDy=0;entryX=0;entryY=0.5;entryDx=0;entryDy=0;curved=1;strokeWidth=3;strokeColor=#666666;" parent="libhglb1-kH7YescJten-1" source="libhglb1-kH7YescJten-26" target="libhglb1-kH7YescJten-22" edge="1">
          <mxGeometry width="50" height="50" relative="1" as="geometry">
            <mxPoint x="387" y="358" as="sourcePoint" />
            <mxPoint x="437" y="308" as="targetPoint" />
            <Array as="points">
              <mxPoint x="177" y="96" />
            </Array>
          </mxGeometry>
        </mxCell>
        <mxCell id="UPllYh_3whKug6RLHJUq-0" value="" style="endArrow=classic;html=1;exitX=0;exitY=0;exitDx=0;exitDy=0;curved=1;strokeWidth=3;strokeColor=#666666;" parent="libhglb1-kH7YescJten-1" source="libhglb1-kH7YescJten-27" edge="1">
          <mxGeometry width="50" height="50" relative="1" as="geometry">
            <mxPoint x="387" y="398" as="sourcePoint" />
            <mxPoint x="520" y="326" as="targetPoint" />
            <Array as="points">
              <mxPoint x="570" y="286" />
            </Array>
          </mxGeometry>
        </mxCell>
        <mxCell id="1JUqbLDREIAW-xJtjwk_-0" value="" style="endArrow=classic;html=1;entryX=0;entryY=1;entryDx=0;entryDy=0;exitX=0;exitY=1;exitDx=0;exitDy=0;curved=1;strokeWidth=3;strokeColor=#666666;" parent="libhglb1-kH7YescJten-1" target="libhglb1-kH7YescJten-27" edge="1">
          <mxGeometry width="50" height="50" relative="1" as="geometry">
            <mxPoint x="520" y="374" as="sourcePoint" />
            <mxPoint x="437" y="347" as="targetPoint" />
            <Array as="points">
              <mxPoint x="561" y="404" />
            </Array>
          </mxGeometry>
        </mxCell>
        <mxCell id="libhglb1-kH7YescJten-22" value="&lt;font style=&quot;font-size: 18px&quot;&gt;Numerical model&lt;/font&gt;" style="whiteSpace=wrap;html=1;fontSize=18;" parent="libhglb1-kH7YescJten-1" vertex="1">
          <mxGeometry x="216" y="66" width="348" height="48" as="geometry" />
        </mxCell>
        <mxCell id="libhglb1-kH7YescJten-23" value="&lt;span style=&quot;font-size: 18px&quot;&gt;High-level representation using a&lt;br style=&quot;font-size: 18px&quot;&gt;&lt;b style=&quot;font-size: 18px&quot;&gt;domain specific language (DSL)&lt;/b&gt;&lt;/span&gt;" style="whiteSpace=wrap;html=1;fontSize=18;" parent="libhglb1-kH7YescJten-1" vertex="1">
          <mxGeometry x="216" y="166" width="348" height="48" as="geometry" />
        </mxCell>
        <mxCell id="libhglb1-kH7YescJten-24" value="High-performance generated code" style="whiteSpace=wrap;html=1;fontSize=17;" parent="libhglb1-kH7YescJten-1" vertex="1">
          <mxGeometry x="205" y="526" width="160" height="48" as="geometry" />
        </mxCell>
        <mxCell id="libhglb1-kH7YescJten-25" value="High-performance generated code" style="whiteSpace=wrap;html=1;fontSize=17;" parent="libhglb1-kH7YescJten-1" vertex="1">
          <mxGeometry x="415" y="526" width="160" height="48" as="geometry" />
        </mxCell>
        <mxCell id="libhglb1-kH7YescJten-26" value="Model change" style="ellipse;whiteSpace=wrap;html=1;strokeWidth=1;fillColor=#ffffff;fontSize=18;verticalAlign=middle;" parent="libhglb1-kH7YescJten-1" vertex="1">
          <mxGeometry x="50" y="116" width="140" height="48" as="geometry" />
        </mxCell>
        <mxCell id="libhglb1-kH7YescJten-29" value="&lt;font style=&quot;font-size: 18px;&quot;&gt;Performance&lt;br style=&quot;font-size: 18px;&quot;&gt;engineering&lt;/font&gt;" style="ellipse;whiteSpace=wrap;html=1;strokeWidth=1;fillColor=#ffffff;fontSize=18;" parent="libhglb1-kH7YescJten-1" vertex="1">
          <mxGeometry x="601" y="415" width="140" height="70" as="geometry" />
        </mxCell>
        <mxCell id="libhglb1-kH7YescJten-30" value="&lt;span style=&quot;font-size: 18px;&quot;&gt;Backend &lt;i style=&quot;font-size: 18px;&quot;&gt;#n&lt;/i&gt;&lt;/span&gt;" style="whiteSpace=wrap;html=1;fontSize=18;" parent="libhglb1-kH7YescJten-1" vertex="1">
          <mxGeometry x="415" y="426" width="160" height="48" as="geometry" />
        </mxCell>
        <mxCell id="libhglb1-kH7YescJten-31" value="&lt;font style=&quot;font-size: 18px;&quot;&gt;Performance&lt;br style=&quot;font-size: 18px;&quot;&gt;engineering&lt;/font&gt;" style="ellipse;whiteSpace=wrap;html=1;strokeWidth=1;fillColor=#ffffff;fontSize=18;" parent="libhglb1-kH7YescJten-1" vertex="1">
          <mxGeometry x="39" y="415" width="140" height="70" as="geometry" />
        </mxCell>
        <mxCell id="libhglb1-kH7YescJten-32" value="&lt;span style=&quot;font-size: 18px;&quot;&gt;Backend &lt;i style=&quot;font-size: 18px;&quot;&gt;#1&lt;/i&gt;&lt;/span&gt;" style="whiteSpace=wrap;html=1;fontSize=18;" parent="libhglb1-kH7YescJten-1" vertex="1">
          <mxGeometry x="205" y="426" width="160" height="48" as="geometry" />
        </mxCell>
        <mxCell id="libhglb1-kH7YescJten-28" value="&lt;span style=&quot;font-size: 17px;&quot;&gt;Hierarchy of tree-like code representations featuring different levels of abstraction&lt;/span&gt;" style="whiteSpace=wrap;html=1;fontSize=17;" parent="libhglb1-kH7YescJten-1" vertex="1">
          <mxGeometry x="216" y="326" width="348" height="48" as="geometry" />
        </mxCell>
        <mxCell id="libhglb1-kH7YescJten-27" value="&lt;span style=&quot;font-size: 18px;&quot;&gt;Domain-driven optimizations&lt;/span&gt;" style="ellipse;whiteSpace=wrap;html=1;strokeWidth=1;fillColor=#ffffff;fontSize=18;verticalAlign=middle;" parent="libhglb1-kH7YescJten-1" vertex="1">
          <mxGeometry x="590" y="315" width="140" height="70" as="geometry" />
        </mxCell>
        <mxCell id="6zSL3qehWEXTuqbeFls2-0" value="(b)" style="text;html=1;strokeColor=none;fillColor=none;align=center;verticalAlign=middle;whiteSpace=wrap;rounded=0;fontSize=18;fontStyle=1" vertex="1" parent="libhglb1-kH7YescJten-1">
          <mxGeometry x="35" y="58" width="30" height="30" as="geometry" />
        </mxCell>
      </root>
    </mxGraphModel>
  </diagram>
  <diagram id="kWDFz4RZPRjEQ03Sv9Sz" name="gt4py">
    <mxGraphModel dx="1434" dy="907" grid="1" gridSize="1" guides="1" tooltips="1" connect="1" arrows="1" fold="1" page="1" pageScale="1" pageWidth="827" pageHeight="1169" math="0" shadow="0">
      <root>
        <mxCell id="0" />
        <mxCell id="1" parent="0" />
        <mxCell id="5eNUUfq7cLuUNu4I51v2-1" value="&lt;font style=&quot;font-size: 18px&quot;&gt;&lt;font color=&quot;#d2a8ff&quot;&gt;&lt;b&gt;&lt;font style=&quot;font-size: 18px&quot;&gt;@&lt;/font&gt;&lt;font style=&quot;font-size: 18px&quot;&gt;gtscript&lt;/font&gt;&lt;/b&gt;&lt;/font&gt;&lt;font style=&quot;font-size: 18px&quot; color=&quot;#ff7b72&quot;&gt;.&lt;/font&gt;&lt;font style=&quot;font-size: 18px&quot;&gt;stencil&lt;/font&gt;(&lt;font style=&quot;font-size: 18px&quot;&gt;backend&lt;/font&gt;&lt;font color=&quot;#ff7b72&quot;&gt;=&lt;/font&gt;&lt;font style=&quot;font-size: 18px&quot; color=&quot;#79c0ff&quot;&gt;&quot;...&quot;&lt;/font&gt;)&lt;br style=&quot;font-size: 18px&quot;&gt;&lt;font style=&quot;font-size: 18px&quot; color=&quot;#ff7b72&quot;&gt;def&lt;/font&gt;&lt;font color=&quot;#cc7832&quot; style=&quot;font-size: 18px&quot;&gt; &lt;/font&gt;&lt;font style=&quot;font-size: 18px&quot; color=&quot;#d2a8ff&quot;&gt;&lt;b&gt;laplacian&lt;/b&gt;&lt;/font&gt;(&lt;br style=&quot;font-size: 18px&quot;&gt;&amp;nbsp; &amp;nbsp; in_phi: gtscript&lt;font color=&quot;#ff7b72&quot;&gt;.&lt;/font&gt;Field[&lt;font style=&quot;font-size: 18px&quot;&gt;float&lt;/font&gt;]&lt;font style=&quot;font-size: 18px&quot;&gt;,&lt;/font&gt;&lt;font color=&quot;#cc7832&quot; style=&quot;font-size: 18px&quot;&gt;&amp;nbsp;&lt;/font&gt;out_lap: gtscript&lt;font color=&quot;#ff7b72&quot;&gt;.&lt;/font&gt;Field[&lt;font style=&quot;font-size: 18px&quot;&gt;float&lt;/font&gt;]&lt;br style=&quot;font-size: 18px&quot;&gt;):&lt;br style=&quot;font-size: 18px&quot;&gt;&amp;nbsp; &amp;nbsp;&amp;nbsp;&lt;font style=&quot;font-size: 18px&quot; color=&quot;#ff7b72&quot;&gt;with&lt;/font&gt; computation(PARALLEL)&lt;font style=&quot;font-size: 18px&quot;&gt;,&lt;/font&gt; interval(&lt;font color=&quot;#ff7b72&quot;&gt;...&lt;/font&gt;):&lt;br style=&quot;font-size: 18px&quot;&gt;&amp;nbsp; &amp;nbsp; &amp;nbsp; &amp;nbsp; out_lap[&lt;font color=&quot;#79c0ff&quot;&gt;0&lt;/font&gt;, &lt;font color=&quot;#79c0ff&quot;&gt;0&lt;/font&gt;, &lt;font color=&quot;#79c0ff&quot;&gt;0&lt;/font&gt;] &lt;font color=&quot;#ff7b72&quot;&gt;= -&lt;/font&gt; &lt;font style=&quot;font-size: 18px&quot; color=&quot;#79c0ff&quot;&gt;4&lt;/font&gt; &lt;font color=&quot;#ff7b72&quot;&gt;*&lt;/font&gt; in_phi[&lt;font style=&quot;font-size: 18px&quot; color=&quot;#79c0ff&quot;&gt;0&lt;/font&gt;&lt;font style=&quot;font-size: 18px&quot;&gt;,&lt;/font&gt; &lt;font style=&quot;font-size: 18px&quot; color=&quot;#79c0ff&quot;&gt;0&lt;/font&gt;&lt;font style=&quot;font-size: 18px&quot;&gt;,&lt;/font&gt; &lt;font style=&quot;font-size: 18px&quot; color=&quot;#79c0ff&quot;&gt;0&lt;/font&gt;] \&lt;br style=&quot;font-size: 18px&quot;&gt;&amp;nbsp; &amp;nbsp; &amp;nbsp; &amp;nbsp; &amp;nbsp; &amp;nbsp; &lt;font color=&quot;#ff7b72&quot;&gt;+&lt;/font&gt; in_phi[&lt;font color=&quot;#ff7b72&quot;&gt;-&lt;/font&gt;&lt;font style=&quot;font-size: 18px&quot; color=&quot;#79c0ff&quot;&gt;1&lt;/font&gt;&lt;font style=&quot;font-size: 18px&quot;&gt;,&lt;/font&gt; &lt;font style=&quot;font-size: 18px&quot; color=&quot;#79c0ff&quot;&gt;0&lt;/font&gt;&lt;font style=&quot;font-size: 18px&quot;&gt;,&lt;/font&gt; &lt;font style=&quot;font-size: 18px&quot; color=&quot;#79c0ff&quot;&gt;0&lt;/font&gt;] &lt;font color=&quot;#ff7b72&quot;&gt;+&lt;/font&gt; in_phi[&lt;font style=&quot;font-size: 18px&quot; color=&quot;#79c0ff&quot;&gt;1&lt;/font&gt;&lt;font style=&quot;font-size: 18px&quot;&gt;,&lt;/font&gt; &lt;font style=&quot;font-size: 18px&quot; color=&quot;#79c0ff&quot;&gt;0&lt;/font&gt;&lt;font style=&quot;font-size: 18px&quot;&gt;,&lt;/font&gt; &lt;font style=&quot;font-size: 18px&quot; color=&quot;#79c0ff&quot;&gt;0&lt;/font&gt;] \&lt;br style=&quot;font-size: 18px&quot;&gt;&amp;nbsp; &amp;nbsp; &amp;nbsp; &amp;nbsp; &amp;nbsp; &amp;nbsp; &lt;font color=&quot;#ff7b72&quot;&gt;+&lt;/font&gt; in_phi[&lt;font style=&quot;font-size: 18px&quot; color=&quot;#79c0ff&quot;&gt;0&lt;/font&gt;&lt;font style=&quot;font-size: 18px&quot;&gt;,&lt;/font&gt; &lt;font color=&quot;#ff7b72&quot;&gt;-&lt;/font&gt;&lt;font style=&quot;font-size: 18px&quot; color=&quot;#79c0ff&quot;&gt;1&lt;/font&gt;&lt;font style=&quot;font-size: 18px&quot;&gt;,&lt;/font&gt; &lt;font style=&quot;font-size: 18px&quot; color=&quot;#79c0ff&quot;&gt;0&lt;/font&gt;] &lt;font color=&quot;#ff7b72&quot;&gt;+&lt;/font&gt; in_phi[&lt;font style=&quot;font-size: 18px&quot; color=&quot;#79c0ff&quot;&gt;0&lt;/font&gt;&lt;font style=&quot;font-size: 18px&quot;&gt;,&lt;/font&gt; &lt;font style=&quot;font-size: 18px&quot; color=&quot;#79c0ff&quot;&gt;1&lt;/font&gt;&lt;font style=&quot;font-size: 18px&quot;&gt;,&lt;/font&gt; &lt;font style=&quot;font-size: 18px&quot; color=&quot;#79c0ff&quot;&gt;0&lt;/font&gt;]&lt;/font&gt;" style="shape=note;whiteSpace=wrap;html=1;backgroundOutline=1;darkOpacity=0.05;rounded=0;strokeColor=none;fillColor=#404040;fontSize=18;align=left;verticalAlign=top;spacingLeft=10;spacingTop=0;fontColor=#ffffff;size=0;fontFamily=Tahoma;" parent="1" vertex="1">
          <mxGeometry x="160" y="160" width="492" height="185" as="geometry" />
        </mxCell>
        <mxCell id="5eNUUfq7cLuUNu4I51v2-2" value="&lt;font color=&quot;#000000&quot;&gt;GTIR&lt;br&gt;&lt;/font&gt;" style="ellipse;whiteSpace=wrap;html=1;rounded=0;labelBackgroundColor=none;strokeColor=#000000;strokeWidth=2;fillColor=#ffffff;fontFamily=Tahoma;fontSize=18;fontColor=#FFFFFF;align=center;" parent="1" vertex="1">
          <mxGeometry x="361" y="394" width="90" height="40" as="geometry" />
        </mxCell>
        <mxCell id="5eNUUfq7cLuUNu4I51v2-3" value="&lt;font color=&quot;#000000&quot; style=&quot;font-size: 20px;&quot;&gt;&amp;nbsp; &amp;nbsp; &amp;nbsp;Frontend&lt;/font&gt;" style="shape=flexArrow;endArrow=classic;html=1;strokeColor=#666666;strokeWidth=3;fontFamily=Tahoma;fontSize=20;fontColor=#FFFFFF;fillColor=#f5f5f5;labelPosition=right;verticalLabelPosition=middle;align=left;verticalAlign=middle;labelBackgroundColor=none;width=8;spacingBottom=4;" parent="1" edge="1">
          <mxGeometry width="50" height="50" relative="1" as="geometry">
            <mxPoint x="406" y="348" as="sourcePoint" />
            <mxPoint x="406" y="391" as="targetPoint" />
          </mxGeometry>
        </mxCell>
        <mxCell id="5eNUUfq7cLuUNu4I51v2-4" value="" style="shape=flexArrow;endArrow=classic;html=1;strokeColor=#666666;strokeWidth=3;fontFamily=Tahoma;fontSize=18;fontColor=#FFFFFF;fillColor=#f5f5f5;labelPosition=right;verticalLabelPosition=middle;align=left;verticalAlign=middle;labelBackgroundColor=none;width=8;" parent="1" edge="1">
          <mxGeometry width="50" height="50" relative="1" as="geometry">
            <mxPoint x="406" y="528" as="sourcePoint" />
            <mxPoint x="406" y="573" as="targetPoint" />
          </mxGeometry>
        </mxCell>
        <mxCell id="5eNUUfq7cLuUNu4I51v2-5" value="&lt;font color=&quot;#000000&quot;&gt;IIR&lt;br&gt;&lt;/font&gt;" style="ellipse;whiteSpace=wrap;html=1;rounded=0;labelBackgroundColor=none;strokeColor=#000000;strokeWidth=2;fillColor=#ffffff;fontFamily=Tahoma;fontSize=18;fontColor=#FFFFFF;align=center;" parent="1" vertex="1">
          <mxGeometry x="362" y="485" width="90" height="40" as="geometry" />
        </mxCell>
        <mxCell id="5eNUUfq7cLuUNu4I51v2-6" value="&lt;font color=&quot;#000000&quot;&gt;GridTools&lt;/font&gt;" style="rounded=0;whiteSpace=wrap;html=1;labelBackgroundColor=none;strokeColor=#000000;strokeWidth=2;fillColor=#ffffff;fontFamily=Tahoma;fontSize=18;fontColor=#FFFFFF;align=center;" parent="1" vertex="1">
          <mxGeometry x="361" y="576" width="90" height="40" as="geometry" />
        </mxCell>
        <mxCell id="5eNUUfq7cLuUNu4I51v2-7" value="&lt;font color=&quot;#000000&quot; style=&quot;font-size: 20px;&quot;&gt;&amp;nbsp; &amp;nbsp; &amp;nbsp;Optimizations&lt;/font&gt;" style="shape=flexArrow;endArrow=classic;html=1;strokeColor=#666666;strokeWidth=3;fontFamily=Tahoma;fontSize=20;fontColor=#FFFFFF;fillColor=#f5f5f5;labelPosition=right;verticalLabelPosition=middle;align=left;verticalAlign=middle;labelBackgroundColor=none;spacingBottom=4;width=8;" parent="1" edge="1">
          <mxGeometry width="50" height="50" relative="1" as="geometry">
            <mxPoint x="407" y="437" as="sourcePoint" />
            <mxPoint x="407" y="482" as="targetPoint" />
          </mxGeometry>
        </mxCell>
        <mxCell id="5eNUUfq7cLuUNu4I51v2-8" value="&lt;font color=&quot;#000000&quot;&gt;NumPy&lt;/font&gt;" style="rounded=0;whiteSpace=wrap;html=1;labelBackgroundColor=none;strokeColor=#000000;strokeWidth=2;fillColor=#ffffff;fontFamily=Tahoma;fontSize=18;fontColor=#FFFFFF;align=center;" parent="1" vertex="1">
          <mxGeometry x="259" y="576" width="90" height="40" as="geometry" />
        </mxCell>
        <mxCell id="5eNUUfq7cLuUNu4I51v2-9" value="&lt;font color=&quot;#000000&quot;&gt;DaCe&lt;/font&gt;" style="rounded=0;whiteSpace=wrap;html=1;labelBackgroundColor=none;strokeColor=#000000;strokeWidth=2;fillColor=#ffffff;fontFamily=Tahoma;fontSize=18;fontColor=#FFFFFF;align=center;" parent="1" vertex="1">
          <mxGeometry x="463" y="576" width="90" height="40" as="geometry" />
        </mxCell>
        <mxCell id="5eNUUfq7cLuUNu4I51v2-10" value="" style="shape=flexArrow;endArrow=classic;html=1;strokeColor=#666666;strokeWidth=3;fontFamily=Tahoma;fontSize=18;fontColor=#FFFFFF;fillColor=#f5f5f5;labelPosition=right;verticalLabelPosition=middle;align=left;verticalAlign=middle;labelBackgroundColor=none;width=8;" parent="1" edge="1">
          <mxGeometry width="50" height="50" relative="1" as="geometry">
            <mxPoint x="406" y="735" as="sourcePoint" />
            <mxPoint x="406" y="780" as="targetPoint" />
          </mxGeometry>
        </mxCell>
        <mxCell id="5eNUUfq7cLuUNu4I51v2-11" value="&lt;font color=&quot;#000000&quot;&gt;Vectorized Python&lt;br&gt;&lt;/font&gt;" style="shape=note;whiteSpace=wrap;html=1;backgroundOutline=1;darkOpacity=0.05;rounded=0;labelBackgroundColor=none;strokeColor=#000000;strokeWidth=2;fillColor=#ffffff;fontFamily=Tahoma;fontSize=18;fontColor=#FFFFFF;align=center;verticalAlign=bottom;size=16;" parent="1" vertex="1">
          <mxGeometry x="259" y="667" width="90" height="65" as="geometry" />
        </mxCell>
        <mxCell id="5eNUUfq7cLuUNu4I51v2-12" value="&lt;font style=&quot;font-size: 18px&quot;&gt;laplacian(phi&lt;font style=&quot;font-size: 18px&quot;&gt;,&lt;/font&gt; lap&lt;font style=&quot;font-size: 18px&quot;&gt;, &lt;/font&gt;&lt;font style=&quot;font-size: 18px&quot;&gt;origin&lt;/font&gt;&lt;font color=&quot;#ff7b72&quot;&gt;=&lt;/font&gt;(&lt;font style=&quot;font-size: 18px&quot; color=&quot;#79c0ff&quot;&gt;1&lt;/font&gt;&lt;font style=&quot;font-size: 18px&quot;&gt;,&amp;nbsp;&lt;/font&gt;&lt;font style=&quot;font-size: 18px&quot; color=&quot;#79c0ff&quot;&gt;1&lt;/font&gt;&lt;font style=&quot;font-size: 18px&quot;&gt;,&amp;nbsp;&lt;/font&gt;&lt;font style=&quot;font-size: 18px&quot; color=&quot;#79c0ff&quot;&gt;0&lt;/font&gt;)&lt;font style=&quot;font-size: 18px&quot;&gt;,&lt;/font&gt; &lt;font style=&quot;font-size: 18px&quot;&gt;domain&lt;/font&gt;&lt;font color=&quot;#ff7b72&quot;&gt;=&lt;/font&gt;(nx&lt;font color=&quot;#ff7b72&quot;&gt;-&lt;/font&gt;&lt;font style=&quot;font-size: 18px&quot; color=&quot;#79c0ff&quot;&gt;2&lt;/font&gt;&lt;font style=&quot;font-size: 18px&quot;&gt;,&lt;/font&gt; ny&lt;font color=&quot;#ff7b72&quot;&gt;-&lt;/font&gt;&lt;font style=&quot;font-size: 18px&quot; color=&quot;#79c0ff&quot;&gt;2&lt;/font&gt;&lt;font style=&quot;font-size: 18px&quot;&gt;,&lt;/font&gt; nz))&lt;/font&gt;" style="shape=note;whiteSpace=wrap;html=1;backgroundOutline=1;darkOpacity=0.05;rounded=0;strokeColor=none;fillColor=#404040;fontSize=18;align=center;verticalAlign=top;spacingLeft=4;spacingTop=0;fontColor=#ffffff;size=0;fontFamily=Tahoma;" parent="1" vertex="1">
          <mxGeometry x="160" y="783" width="492" height="36" as="geometry" />
        </mxCell>
        <mxCell id="5eNUUfq7cLuUNu4I51v2-13" value="" style="shape=flexArrow;endArrow=classic;html=1;strokeColor=#666666;strokeWidth=3;fontFamily=Tahoma;fontSize=18;fontColor=#FFFFFF;fillColor=#f5f5f5;labelPosition=right;verticalLabelPosition=middle;align=left;verticalAlign=middle;labelBackgroundColor=none;width=8;" parent="1" edge="1">
          <mxGeometry width="50" height="50" relative="1" as="geometry">
            <mxPoint x="407" y="619" as="sourcePoint" />
            <mxPoint x="407" y="664" as="targetPoint" />
          </mxGeometry>
        </mxCell>
        <mxCell id="5eNUUfq7cLuUNu4I51v2-14" value="" style="shape=flexArrow;endArrow=classic;html=1;strokeColor=#666666;strokeWidth=3;fontFamily=Tahoma;fontSize=18;fontColor=#FFFFFF;fillColor=#f5f5f5;labelPosition=right;verticalLabelPosition=middle;align=left;verticalAlign=middle;labelBackgroundColor=none;width=8;" parent="1" edge="1">
          <mxGeometry width="50" height="50" relative="1" as="geometry">
            <mxPoint x="362" y="515" as="sourcePoint" />
            <mxPoint x="304" y="571" as="targetPoint" />
          </mxGeometry>
        </mxCell>
        <mxCell id="5eNUUfq7cLuUNu4I51v2-15" value="" style="shape=flexArrow;endArrow=classic;html=1;strokeColor=#666666;strokeWidth=3;fontFamily=Tahoma;fontSize=18;fontColor=#FFFFFF;fillColor=#f5f5f5;labelPosition=right;verticalLabelPosition=middle;align=left;verticalAlign=middle;labelBackgroundColor=none;width=8;" parent="1" edge="1">
          <mxGeometry width="50" height="50" relative="1" as="geometry">
            <mxPoint x="450" y="515" as="sourcePoint" />
            <mxPoint x="508" y="571" as="targetPoint" />
          </mxGeometry>
        </mxCell>
        <mxCell id="5eNUUfq7cLuUNu4I51v2-16" value="" style="shape=flexArrow;endArrow=classic;html=1;strokeColor=#666666;strokeWidth=3;fontFamily=Tahoma;fontSize=18;fontColor=#FFFFFF;fillColor=#f5f5f5;labelPosition=right;verticalLabelPosition=middle;align=left;verticalAlign=middle;labelBackgroundColor=none;width=8;" parent="1" edge="1">
          <mxGeometry width="50" height="50" relative="1" as="geometry">
            <mxPoint x="303" y="619" as="sourcePoint" />
            <mxPoint x="303" y="664" as="targetPoint" />
          </mxGeometry>
        </mxCell>
        <mxCell id="5eNUUfq7cLuUNu4I51v2-17" value="&lt;font color=&quot;#000000&quot; style=&quot;font-size: 20px&quot;&gt;&amp;nbsp; &amp;nbsp; &amp;nbsp;Code generation&lt;/font&gt;" style="shape=flexArrow;endArrow=classic;html=1;strokeColor=#666666;strokeWidth=3;fontFamily=Tahoma;fontSize=18;fontColor=#FFFFFF;fillColor=#f5f5f5;labelPosition=right;verticalLabelPosition=middle;align=left;verticalAlign=middle;labelBackgroundColor=none;width=8;" parent="1" edge="1">
          <mxGeometry width="50" height="50" relative="1" as="geometry">
            <mxPoint x="508" y="619" as="sourcePoint" />
            <mxPoint x="508" y="664" as="targetPoint" />
          </mxGeometry>
        </mxCell>
        <mxCell id="5eNUUfq7cLuUNu4I51v2-18" value="&lt;font color=&quot;#000000&quot;&gt;Optimized&lt;br&gt;C++&lt;br&gt;&lt;/font&gt;" style="shape=note;whiteSpace=wrap;html=1;backgroundOutline=1;darkOpacity=0.05;rounded=0;labelBackgroundColor=none;strokeColor=#000000;strokeWidth=2;fillColor=#ffffff;fontFamily=Tahoma;fontSize=18;fontColor=#FFFFFF;align=center;verticalAlign=bottom;size=16;" parent="1" vertex="1">
          <mxGeometry x="361" y="667" width="90" height="65" as="geometry" />
        </mxCell>
        <mxCell id="5eNUUfq7cLuUNu4I51v2-19" value="&lt;font color=&quot;#000000&quot;&gt;Optimized&lt;br&gt;C++&lt;br&gt;&lt;/font&gt;" style="shape=note;whiteSpace=wrap;html=1;backgroundOutline=1;darkOpacity=0.05;rounded=0;labelBackgroundColor=none;strokeColor=#000000;strokeWidth=2;fillColor=#ffffff;fontFamily=Tahoma;fontSize=18;fontColor=#FFFFFF;align=center;verticalAlign=bottom;size=16;" parent="1" vertex="1">
          <mxGeometry x="463" y="667" width="90" height="65" as="geometry" />
        </mxCell>
        <mxCell id="5eNUUfq7cLuUNu4I51v2-20" value="&lt;font color=&quot;#000000&quot; style=&quot;font-size: 20px;&quot;&gt;Backends&lt;/font&gt;" style="text;html=1;strokeColor=none;fillColor=none;align=left;verticalAlign=top;whiteSpace=wrap;rounded=0;labelBackgroundColor=none;fontFamily=Tahoma;fontSize=20;fontColor=#FFFFFF;" parent="1" vertex="1">
          <mxGeometry x="570" y="576" width="88" height="40" as="geometry" />
        </mxCell>
        <mxCell id="5eNUUfq7cLuUNu4I51v2-21" value="" style="shape=flexArrow;endArrow=classic;html=1;strokeColor=#666666;strokeWidth=3;fontFamily=Tahoma;fontSize=18;fontColor=#FFFFFF;fillColor=#f5f5f5;labelPosition=right;verticalLabelPosition=middle;align=left;verticalAlign=middle;labelBackgroundColor=none;width=8;" parent="1" edge="1">
          <mxGeometry width="50" height="50" relative="1" as="geometry">
            <mxPoint x="303" y="735" as="sourcePoint" />
            <mxPoint x="303" y="780" as="targetPoint" />
          </mxGeometry>
        </mxCell>
        <mxCell id="5eNUUfq7cLuUNu4I51v2-22" value="&lt;font color=&quot;#000000&quot; style=&quot;font-size: 20px&quot;&gt;&amp;nbsp; &amp;nbsp; &amp;nbsp;Bindings&lt;/font&gt;" style="shape=flexArrow;endArrow=classic;html=1;strokeColor=#666666;strokeWidth=3;fontFamily=Tahoma;fontSize=18;fontColor=#FFFFFF;fillColor=#f5f5f5;labelPosition=right;verticalLabelPosition=middle;align=left;verticalAlign=middle;labelBackgroundColor=none;width=8;" parent="1" edge="1">
          <mxGeometry width="50" height="50" relative="1" as="geometry">
            <mxPoint x="508" y="735" as="sourcePoint" />
            <mxPoint x="508" y="780" as="targetPoint" />
          </mxGeometry>
        </mxCell>
      </root>
    </mxGraphModel>
  </diagram>
  <diagram name="gt4py-1" id="ueRbiHHn6JniEWsOsAGk">
    <mxGraphModel dx="1434" dy="907" grid="1" gridSize="1" guides="1" tooltips="1" connect="1" arrows="1" fold="1" page="1" pageScale="1" pageWidth="827" pageHeight="1169" math="0" shadow="0">
      <root>
        <mxCell id="SU1M1b8zU2zZWcLPuGnF-0" />
        <mxCell id="SU1M1b8zU2zZWcLPuGnF-1" parent="SU1M1b8zU2zZWcLPuGnF-0" />
        <mxCell id="SU1M1b8zU2zZWcLPuGnF-3" value="&lt;font color=&quot;#000000&quot;&gt;GTIR&lt;br&gt;&lt;/font&gt;" style="ellipse;whiteSpace=wrap;html=1;rounded=0;labelBackgroundColor=none;strokeColor=#000000;strokeWidth=2;fillColor=#ffffff;fontFamily=Tahoma;fontSize=18;fontColor=#FFFFFF;align=center;" parent="SU1M1b8zU2zZWcLPuGnF-1" vertex="1">
          <mxGeometry x="362" y="414" width="90" height="40" as="geometry" />
        </mxCell>
        <mxCell id="SU1M1b8zU2zZWcLPuGnF-6" value="&lt;font color=&quot;#000000&quot;&gt;IIR&lt;br&gt;&lt;/font&gt;" style="ellipse;whiteSpace=wrap;html=1;rounded=0;labelBackgroundColor=none;strokeColor=#000000;strokeWidth=2;fillColor=#ffffff;fontFamily=Tahoma;fontSize=18;fontColor=#FFFFFF;align=center;" parent="SU1M1b8zU2zZWcLPuGnF-1" vertex="1">
          <mxGeometry x="362" y="505" width="90" height="40" as="geometry" />
        </mxCell>
        <mxCell id="SU1M1b8zU2zZWcLPuGnF-7" value="&lt;font color=&quot;#000000&quot;&gt;GridTools (CPU)&lt;/font&gt;" style="rounded=0;whiteSpace=wrap;html=1;labelBackgroundColor=none;strokeColor=#000000;strokeWidth=2;fillColor=#ffffff;fontFamily=Tahoma;fontSize=18;fontColor=#FFFFFF;align=center;verticalAlign=middle;spacing=0;spacingTop=-2;" parent="SU1M1b8zU2zZWcLPuGnF-1" vertex="1">
          <mxGeometry x="243" y="627" width="100" height="50" as="geometry" />
        </mxCell>
        <mxCell id="SU1M1b8zU2zZWcLPuGnF-8" value="&lt;font color=&quot;#000000&quot; style=&quot;font-size: 20px;&quot;&gt;&amp;nbsp; &amp;nbsp; Frontend&lt;/font&gt;" style="shape=flexArrow;endArrow=classic;html=1;strokeColor=#666666;strokeWidth=3;fontFamily=Tahoma;fontSize=20;fontColor=#FFFFFF;fillColor=#f5f5f5;labelPosition=right;verticalLabelPosition=middle;align=left;verticalAlign=middle;labelBackgroundColor=none;spacingBottom=4;width=8;" parent="SU1M1b8zU2zZWcLPuGnF-1" edge="1">
          <mxGeometry x="0.0222" width="50" height="50" relative="1" as="geometry">
            <mxPoint x="407" y="366" as="sourcePoint" />
            <mxPoint x="407" y="411" as="targetPoint" />
            <mxPoint as="offset" />
          </mxGeometry>
        </mxCell>
        <mxCell id="SU1M1b8zU2zZWcLPuGnF-9" value="&lt;font color=&quot;#000000&quot;&gt;NumPy&lt;/font&gt;" style="rounded=0;whiteSpace=wrap;html=1;labelBackgroundColor=none;strokeColor=#000000;strokeWidth=2;fillColor=#ffffff;fontFamily=Tahoma;fontSize=18;fontColor=#FFFFFF;align=center;" parent="SU1M1b8zU2zZWcLPuGnF-1" vertex="1">
          <mxGeometry x="129" y="627" width="100" height="50" as="geometry" />
        </mxCell>
        <mxCell id="SU1M1b8zU2zZWcLPuGnF-10" value="&lt;font color=&quot;#000000&quot;&gt;DaCe&lt;br&gt;(GPU)&lt;/font&gt;" style="rounded=0;whiteSpace=wrap;html=1;labelBackgroundColor=none;strokeColor=#000000;strokeWidth=2;fillColor=#ffffff;fontFamily=Tahoma;fontSize=18;fontColor=#FFFFFF;align=center;" parent="SU1M1b8zU2zZWcLPuGnF-1" vertex="1">
          <mxGeometry x="585" y="627" width="100" height="50" as="geometry" />
        </mxCell>
        <mxCell id="SU1M1b8zU2zZWcLPuGnF-12" value="&lt;font color=&quot;#000000&quot;&gt;Vectorized Python&lt;br&gt;&lt;/font&gt;" style="shape=note;whiteSpace=wrap;html=1;backgroundOutline=1;darkOpacity=0.05;rounded=0;labelBackgroundColor=none;strokeColor=#000000;strokeWidth=2;fillColor=#ffffff;fontFamily=Tahoma;fontSize=18;fontColor=#FFFFFF;align=center;verticalAlign=bottom;size=16;" parent="SU1M1b8zU2zZWcLPuGnF-1" vertex="1">
          <mxGeometry x="129" y="728" width="100" height="65" as="geometry" />
        </mxCell>
        <mxCell id="SU1M1b8zU2zZWcLPuGnF-13" value="&lt;font style=&quot;font-size: 18px&quot;&gt;&lt;font style=&quot;&quot; face=&quot;Hack&quot;&gt;&lt;font color=&quot;#000000&quot;&gt;laplacian(phi&lt;/font&gt;&lt;font style=&quot;color: rgb(0, 0, 0); font-size: 18px;&quot;&gt;,&lt;/font&gt;&lt;font color=&quot;#000000&quot;&gt; lap&lt;/font&gt;&lt;font style=&quot;color: rgb(0, 0, 0); font-size: 18px;&quot;&gt;, &lt;/font&gt;&lt;font style=&quot;color: rgb(0, 0, 0); font-size: 18px;&quot;&gt;origin&lt;/font&gt;&lt;font color=&quot;#666666&quot;&gt;=&lt;/font&gt;&lt;font color=&quot;#000000&quot;&gt;(&lt;/font&gt;&lt;font color=&quot;#666666&quot; style=&quot;font-size: 18px;&quot;&gt;1&lt;/font&gt;&lt;font style=&quot;color: rgb(0, 0, 0); font-size: 18px;&quot;&gt;,&amp;nbsp;&lt;/font&gt;&lt;font color=&quot;#666666&quot; style=&quot;font-size: 18px;&quot;&gt;1&lt;/font&gt;&lt;font style=&quot;color: rgb(0, 0, 0); font-size: 18px;&quot;&gt;,&amp;nbsp;&lt;/font&gt;&lt;font color=&quot;#666666&quot; style=&quot;font-size: 18px;&quot;&gt;0&lt;/font&gt;&lt;font color=&quot;#000000&quot;&gt;)&lt;/font&gt;&lt;font style=&quot;color: rgb(0, 0, 0); font-size: 18px;&quot;&gt;,&lt;/font&gt; &lt;font style=&quot;color: rgb(0, 0, 0); font-size: 18px;&quot;&gt;domain&lt;/font&gt;&lt;font color=&quot;#666666&quot;&gt;=&lt;/font&gt;&lt;font color=&quot;#000000&quot;&gt;(nx&lt;/font&gt;&lt;font color=&quot;#666666&quot;&gt;-&lt;font style=&quot;font-size: 18px;&quot;&gt;2&lt;/font&gt;&lt;/font&gt;&lt;font style=&quot;color: rgb(0, 0, 0); font-size: 18px;&quot;&gt;,&lt;/font&gt;&lt;font color=&quot;#000000&quot;&gt; ny&lt;/font&gt;&lt;font color=&quot;#666666&quot;&gt;-&lt;font style=&quot;font-size: 18px;&quot;&gt;2&lt;/font&gt;&lt;/font&gt;&lt;font style=&quot;color: rgb(0, 0, 0); font-size: 18px;&quot;&gt;,&lt;/font&gt;&lt;font color=&quot;#000000&quot;&gt; nz)&lt;/font&gt;&lt;/font&gt;&lt;font color=&quot;#000000&quot;&gt;)&lt;/font&gt;&lt;/font&gt;" style="shape=note;whiteSpace=wrap;html=1;backgroundOutline=1;darkOpacity=0.05;rounded=0;strokeColor=default;fillColor=#FFFFFF;fontSize=18;align=center;verticalAlign=top;spacingLeft=4;spacingTop=0;fontColor=#ffffff;size=0;fontFamily=Tahoma;strokeWidth=1;" parent="SU1M1b8zU2zZWcLPuGnF-1" vertex="1">
          <mxGeometry x="57" y="844" width="700" height="36" as="geometry" />
        </mxCell>
        <mxCell id="SU1M1b8zU2zZWcLPuGnF-17" value="" style="shape=flexArrow;endArrow=classic;html=1;strokeColor=#666666;strokeWidth=3;fontFamily=Tahoma;fontSize=18;fontColor=#FFFFFF;fillColor=#f5f5f5;labelPosition=right;verticalLabelPosition=middle;align=left;verticalAlign=middle;labelBackgroundColor=none;width=8;" parent="SU1M1b8zU2zZWcLPuGnF-1" edge="1">
          <mxGeometry width="50" height="50" relative="1" as="geometry">
            <mxPoint x="179" y="680" as="sourcePoint" />
            <mxPoint x="179" y="725" as="targetPoint" />
          </mxGeometry>
        </mxCell>
        <mxCell id="SU1M1b8zU2zZWcLPuGnF-18" value="&lt;font color=&quot;#000000&quot; style=&quot;font-size: 20px;&quot;&gt;&amp;nbsp; &amp;nbsp;Code generation&lt;/font&gt;" style="shape=flexArrow;endArrow=classic;html=1;strokeColor=#666666;strokeWidth=3;fontFamily=Tahoma;fontSize=20;fontColor=#FFFFFF;fillColor=#f5f5f5;labelPosition=right;verticalLabelPosition=middle;align=left;verticalAlign=middle;labelBackgroundColor=none;width=8;" parent="SU1M1b8zU2zZWcLPuGnF-1" edge="1">
          <mxGeometry x="0.0667" y="8" width="50" height="50" relative="1" as="geometry">
            <mxPoint x="635" y="680" as="sourcePoint" />
            <mxPoint x="635" y="725" as="targetPoint" />
            <mxPoint as="offset" />
          </mxGeometry>
        </mxCell>
        <mxCell id="SU1M1b8zU2zZWcLPuGnF-19" value="&lt;font color=&quot;#000000&quot;&gt;Optimized&lt;br&gt;C++&lt;br&gt;&lt;/font&gt;" style="shape=note;whiteSpace=wrap;html=1;backgroundOutline=1;darkOpacity=0.05;rounded=0;labelBackgroundColor=none;strokeColor=#000000;strokeWidth=2;fillColor=#ffffff;fontFamily=Tahoma;fontSize=18;fontColor=#FFFFFF;align=center;verticalAlign=bottom;size=16;" parent="SU1M1b8zU2zZWcLPuGnF-1" vertex="1">
          <mxGeometry x="243" y="728" width="100" height="65" as="geometry" />
        </mxCell>
        <mxCell id="SU1M1b8zU2zZWcLPuGnF-20" value="&lt;font color=&quot;#000000&quot;&gt;Optimized&lt;br&gt;C++&lt;br&gt;&lt;/font&gt;" style="shape=note;whiteSpace=wrap;html=1;backgroundOutline=1;darkOpacity=0.05;rounded=0;labelBackgroundColor=none;strokeColor=#000000;strokeWidth=2;fillColor=#ffffff;fontFamily=Tahoma;fontSize=18;fontColor=#FFFFFF;align=center;verticalAlign=bottom;size=16;" parent="SU1M1b8zU2zZWcLPuGnF-1" vertex="1">
          <mxGeometry x="471" y="728" width="100" height="65" as="geometry" />
        </mxCell>
        <mxCell id="SU1M1b8zU2zZWcLPuGnF-21" value="&lt;font color=&quot;#000000&quot; style=&quot;font-size: 20px;&quot;&gt;Backends&lt;/font&gt;" style="text;html=1;strokeColor=none;fillColor=none;align=left;verticalAlign=top;whiteSpace=wrap;rounded=0;labelBackgroundColor=none;fontFamily=Tahoma;fontSize=20;fontColor=#FFFFFF;" parent="SU1M1b8zU2zZWcLPuGnF-1" vertex="1">
          <mxGeometry x="699" y="632" width="108" height="40" as="geometry" />
        </mxCell>
        <mxCell id="uP_sHD6cMYwcDjVPfnz7-0" value="&lt;div style=&quot;font-size: 18px;&quot;&gt;&lt;font style=&quot;font-size: 18px;&quot;&gt;&lt;font color=&quot;#aa22ff&quot;&gt;@gt4py&lt;/font&gt;&lt;font color=&quot;#666666&quot;&gt;.&lt;/font&gt;cartesian&lt;font color=&quot;#666666&quot;&gt;.&lt;/font&gt;gtscript&lt;font color=&quot;#666666&quot;&gt;.&lt;/font&gt;stencil(backend&lt;font color=&quot;#666666&quot;&gt;=&lt;/font&gt;&lt;font color=&quot;#ba2121&quot;&gt;&quot;...&quot;&lt;/font&gt;)&lt;/font&gt;&lt;/div&gt;&lt;div style=&quot;font-size: 18px;&quot;&gt;&lt;font style=&quot;font-size: 18px;&quot;&gt;&lt;font color=&quot;#008000&quot;&gt;&lt;b&gt;def&lt;/b&gt;&lt;/font&gt; &lt;font color=&quot;#0000ff&quot;&gt;laplacian&lt;/font&gt;(&lt;/font&gt;&lt;/div&gt;&lt;div style=&quot;font-size: 18px;&quot;&gt;&lt;font style=&quot;font-size: 18px;&quot;&gt;&amp;nbsp; &amp;nbsp; in_phi: gt4py.cartesian.gtscript&lt;font color=&quot;#666666&quot;&gt;.&lt;/font&gt;Field[&lt;font color=&quot;#008000&quot;&gt;float&lt;/font&gt;],&amp;nbsp;&lt;/font&gt;&lt;/div&gt;&lt;div style=&quot;font-size: 18px;&quot;&gt;&lt;font style=&quot;font-size: 18px;&quot;&gt;&amp;nbsp; &amp;nbsp; out_lap: gt4py.cartesian.gtscript&lt;font color=&quot;#666666&quot;&gt;.&lt;/font&gt;Field[&lt;font color=&quot;#008000&quot;&gt;float&lt;/font&gt;]&lt;/font&gt;&lt;/div&gt;&lt;div style=&quot;font-size: 18px;&quot;&gt;&lt;font style=&quot;font-size: 18px;&quot;&gt;) &lt;font color=&quot;#666666&quot;&gt;-&amp;gt;&lt;/font&gt; &lt;b&gt;&lt;font color=&quot;#008000&quot;&gt;None&lt;/font&gt;&lt;/b&gt;:&lt;/font&gt;&lt;/div&gt;&lt;div style=&quot;font-size: 18px;&quot;&gt;&amp;nbsp; &amp;nbsp; &lt;b&gt;&lt;font color=&quot;#008000&quot;&gt;with&lt;/font&gt;&lt;/b&gt; computation(PARALLEL), interval(&lt;font color=&quot;#666666&quot;&gt;...&lt;/font&gt;):&lt;/div&gt;&lt;div style=&quot;font-size: 18px;&quot;&gt;&lt;font style=&quot;font-size: 18px;&quot;&gt;&amp;nbsp; &amp;nbsp; &amp;nbsp; &amp;nbsp; out_lap[&lt;font color=&quot;#666666&quot;&gt;0&lt;/font&gt;, &lt;font color=&quot;#666666&quot;&gt;0&lt;/font&gt;, &lt;font color=&quot;#666666&quot;&gt;0&lt;/font&gt;] &lt;font color=&quot;#666666&quot;&gt;=&lt;/font&gt; &lt;/font&gt;&lt;font style=&quot;background-color: initial;&quot; color=&quot;#666666&quot;&gt;- 4.0 *&lt;/font&gt;&lt;span style=&quot;background-color: initial;&quot;&gt; in_phi[&lt;/span&gt;&lt;font style=&quot;background-color: initial;&quot; color=&quot;#666666&quot;&gt;0&lt;/font&gt;&lt;span style=&quot;background-color: initial;&quot;&gt;, &lt;/span&gt;&lt;font style=&quot;background-color: initial;&quot; color=&quot;#666666&quot;&gt;0&lt;/font&gt;&lt;span style=&quot;background-color: initial;&quot;&gt;, &lt;/span&gt;&lt;font style=&quot;background-color: initial;&quot; color=&quot;#666666&quot;&gt;0&lt;/font&gt;&lt;span style=&quot;background-color: initial;&quot;&gt;] \&lt;/span&gt;&lt;/div&gt;&lt;div style=&quot;font-size: 18px;&quot;&gt;&lt;font style=&quot;font-size: 18px;&quot;&gt;&amp;nbsp; &amp;nbsp; &amp;nbsp; &amp;nbsp; &amp;nbsp; &amp;nbsp; &lt;font color=&quot;#666666&quot;&gt;+&lt;/font&gt; in_phi[&lt;font color=&quot;#666666&quot;&gt;-1&lt;/font&gt;, &lt;font color=&quot;#666666&quot;&gt;0&lt;/font&gt;, &lt;font color=&quot;#666666&quot;&gt;0&lt;/font&gt;] &lt;font color=&quot;#666666&quot;&gt;+&lt;/font&gt; in_phi[&lt;font color=&quot;#666666&quot;&gt;1&lt;/font&gt;, &lt;font color=&quot;#666666&quot;&gt;0&lt;/font&gt;, &lt;font color=&quot;#666666&quot;&gt;0&lt;/font&gt;] \&lt;/font&gt;&lt;/div&gt;&amp;nbsp; &amp;nbsp; &amp;nbsp; &amp;nbsp; &amp;nbsp; &amp;nbsp; &lt;font color=&quot;#666666&quot;&gt;+&lt;/font&gt; in_phi[&lt;font color=&quot;#666666&quot;&gt;0&lt;/font&gt;, &lt;font color=&quot;#666666&quot;&gt;-1&lt;/font&gt;, &lt;font color=&quot;#666666&quot;&gt;0&lt;/font&gt;] &lt;font color=&quot;#666666&quot;&gt;+&lt;/font&gt; in_phi[&lt;font color=&quot;#666666&quot;&gt;0&lt;/font&gt;, &lt;font color=&quot;#666666&quot;&gt;1&lt;/font&gt;, &lt;font color=&quot;#666666&quot;&gt;0&lt;/font&gt;]" style="rounded=0;whiteSpace=wrap;html=1;align=left;fontFamily=Hack;spacingLeft=14;spacingBottom=10;spacingTop=9;fontSize=18;strokeWidth=1;" parent="SU1M1b8zU2zZWcLPuGnF-1" vertex="1">
          <mxGeometry x="107" y="153" width="600" height="210" as="geometry" />
        </mxCell>
        <mxCell id="X8r6X2ajHBQgbCOMzX28-0" value="&lt;font color=&quot;#000000&quot;&gt;DaCe&lt;br&gt;&amp;nbsp;(CPU)&lt;/font&gt;" style="rounded=0;whiteSpace=wrap;html=1;labelBackgroundColor=none;strokeColor=#000000;strokeWidth=2;fillColor=#ffffff;fontFamily=Tahoma;fontSize=18;fontColor=#FFFFFF;align=center;verticalAlign=middle;spacing=0;spacingTop=-2;" parent="SU1M1b8zU2zZWcLPuGnF-1" vertex="1">
          <mxGeometry x="471" y="627" width="100" height="50" as="geometry" />
        </mxCell>
        <mxCell id="X8r6X2ajHBQgbCOMzX28-2" value="&lt;font color=&quot;#000000&quot;&gt;Optimized&lt;br&gt;C++/CUDA&lt;br&gt;&lt;/font&gt;" style="shape=note;whiteSpace=wrap;html=1;backgroundOutline=1;darkOpacity=0.05;rounded=0;labelBackgroundColor=none;strokeColor=#000000;strokeWidth=2;fillColor=#ffffff;fontFamily=Tahoma;fontSize=18;fontColor=#FFFFFF;align=center;verticalAlign=bottom;size=16;" parent="SU1M1b8zU2zZWcLPuGnF-1" vertex="1">
          <mxGeometry x="585" y="728" width="100" height="65" as="geometry" />
        </mxCell>
        <mxCell id="X8r6X2ajHBQgbCOMzX28-3" value="" style="shape=flexArrow;endArrow=classic;html=1;strokeColor=#666666;strokeWidth=3;fontFamily=Tahoma;fontSize=18;fontColor=#FFFFFF;fillColor=#f5f5f5;labelPosition=right;verticalLabelPosition=middle;align=left;verticalAlign=middle;labelBackgroundColor=none;width=8;" parent="SU1M1b8zU2zZWcLPuGnF-1" edge="1">
          <mxGeometry width="50" height="50" relative="1" as="geometry">
            <mxPoint x="293" y="680" as="sourcePoint" />
            <mxPoint x="293" y="725" as="targetPoint" />
          </mxGeometry>
        </mxCell>
        <mxCell id="X8r6X2ajHBQgbCOMzX28-4" value="" style="shape=flexArrow;endArrow=classic;html=1;strokeColor=#666666;strokeWidth=3;fontFamily=Tahoma;fontSize=18;fontColor=#FFFFFF;fillColor=#f5f5f5;labelPosition=right;verticalLabelPosition=middle;align=left;verticalAlign=middle;labelBackgroundColor=none;width=8;" parent="SU1M1b8zU2zZWcLPuGnF-1" edge="1">
          <mxGeometry width="50" height="50" relative="1" as="geometry">
            <mxPoint x="521" y="680" as="sourcePoint" />
            <mxPoint x="521" y="725" as="targetPoint" />
          </mxGeometry>
        </mxCell>
        <mxCell id="X8r6X2ajHBQgbCOMzX28-6" value="" style="shape=flexArrow;endArrow=classic;html=1;strokeColor=#666666;strokeWidth=3;fontFamily=Tahoma;fontSize=18;fontColor=#FFFFFF;fillColor=#f5f5f5;labelPosition=right;verticalLabelPosition=middle;align=left;verticalAlign=middle;labelBackgroundColor=none;width=8;" parent="SU1M1b8zU2zZWcLPuGnF-1" edge="1">
          <mxGeometry width="50" height="50" relative="1" as="geometry">
            <mxPoint x="179" y="796" as="sourcePoint" />
            <mxPoint x="179" y="841" as="targetPoint" />
          </mxGeometry>
        </mxCell>
        <mxCell id="X8r6X2ajHBQgbCOMzX28-7" value="" style="shape=flexArrow;endArrow=classic;html=1;strokeColor=#666666;strokeWidth=3;fontFamily=Tahoma;fontSize=18;fontColor=#FFFFFF;fillColor=#f5f5f5;labelPosition=right;verticalLabelPosition=middle;align=left;verticalAlign=middle;labelBackgroundColor=none;width=8;" parent="SU1M1b8zU2zZWcLPuGnF-1" edge="1">
          <mxGeometry width="50" height="50" relative="1" as="geometry">
            <mxPoint x="293" y="796" as="sourcePoint" />
            <mxPoint x="293" y="841" as="targetPoint" />
          </mxGeometry>
        </mxCell>
        <mxCell id="X8r6X2ajHBQgbCOMzX28-8" value="" style="shape=flexArrow;endArrow=classic;html=1;strokeColor=#666666;strokeWidth=3;fontFamily=Tahoma;fontSize=18;fontColor=#FFFFFF;fillColor=#f5f5f5;labelPosition=right;verticalLabelPosition=middle;align=left;verticalAlign=middle;labelBackgroundColor=none;width=8;" parent="SU1M1b8zU2zZWcLPuGnF-1" edge="1">
          <mxGeometry width="50" height="50" relative="1" as="geometry">
            <mxPoint x="521" y="796" as="sourcePoint" />
            <mxPoint x="521" y="841" as="targetPoint" />
          </mxGeometry>
        </mxCell>
        <mxCell id="X8r6X2ajHBQgbCOMzX28-11" value="&lt;font color=&quot;#000000&quot; style=&quot;font-size: 20px;&quot;&gt;&amp;nbsp; &amp;nbsp; Optimizations&lt;/font&gt;" style="shape=flexArrow;endArrow=classic;html=1;strokeColor=#666666;strokeWidth=3;fontFamily=Tahoma;fontSize=20;fontColor=#FFFFFF;fillColor=#f5f5f5;labelPosition=right;verticalLabelPosition=middle;align=left;verticalAlign=middle;labelBackgroundColor=none;spacingBottom=4;width=8;" parent="SU1M1b8zU2zZWcLPuGnF-1" edge="1">
          <mxGeometry x="0.0222" width="50" height="50" relative="1" as="geometry">
            <mxPoint x="407" y="457" as="sourcePoint" />
            <mxPoint x="407" y="502" as="targetPoint" />
            <mxPoint as="offset" />
          </mxGeometry>
        </mxCell>
        <mxCell id="GOJ7h462Bj4TwkQQWzfm-0" value="&lt;font color=&quot;#000000&quot;&gt;GridTools (GPU)&lt;/font&gt;" style="rounded=0;whiteSpace=wrap;html=1;labelBackgroundColor=none;strokeColor=#000000;strokeWidth=2;fillColor=#ffffff;fontFamily=Tahoma;fontSize=18;fontColor=#FFFFFF;align=center;verticalAlign=middle;spacing=0;spacingTop=-2;" vertex="1" parent="SU1M1b8zU2zZWcLPuGnF-1">
          <mxGeometry x="357" y="627" width="100" height="50" as="geometry" />
        </mxCell>
        <mxCell id="t5xxbvdJP_GBm4t3CaKM-0" value="" style="shape=flexArrow;endArrow=classic;html=1;strokeColor=#666666;strokeWidth=3;fontFamily=Tahoma;fontSize=18;fontColor=#FFFFFF;fillColor=#f5f5f5;labelPosition=right;verticalLabelPosition=middle;align=left;verticalAlign=middle;labelBackgroundColor=none;width=8;rounded=1;edgeStyle=elbowEdgeStyle;elbow=vertical;" edge="1" parent="SU1M1b8zU2zZWcLPuGnF-1">
          <mxGeometry width="50" height="50" relative="1" as="geometry">
            <mxPoint x="407" y="548" as="sourcePoint" />
            <mxPoint x="293" y="624" as="targetPoint" />
            <Array as="points">
              <mxPoint x="301" y="570" />
              <mxPoint x="415" y="585" />
              <mxPoint x="328" y="582" />
            </Array>
          </mxGeometry>
        </mxCell>
        <mxCell id="t5xxbvdJP_GBm4t3CaKM-2" value="" style="shape=flexArrow;endArrow=classic;html=1;strokeColor=#666666;strokeWidth=3;fontFamily=Tahoma;fontSize=18;fontColor=#FFFFFF;fillColor=#f5f5f5;labelPosition=right;verticalLabelPosition=middle;align=left;verticalAlign=middle;labelBackgroundColor=none;width=8;rounded=1;edgeStyle=elbowEdgeStyle;elbow=vertical;" edge="1" parent="SU1M1b8zU2zZWcLPuGnF-1">
          <mxGeometry width="50" height="50" relative="1" as="geometry">
            <mxPoint x="407" y="548" as="sourcePoint" />
            <mxPoint x="521" y="624" as="targetPoint" />
            <Array as="points">
              <mxPoint x="468" y="570" />
              <mxPoint x="399" y="585" />
              <mxPoint x="486" y="582" />
            </Array>
          </mxGeometry>
        </mxCell>
        <mxCell id="t5xxbvdJP_GBm4t3CaKM-3" value="" style="shape=flexArrow;endArrow=classic;html=1;strokeColor=#666666;strokeWidth=3;fontFamily=Tahoma;fontSize=18;fontColor=#FFFFFF;fillColor=#f5f5f5;labelPosition=right;verticalLabelPosition=middle;align=left;verticalAlign=middle;labelBackgroundColor=none;width=8;rounded=1;edgeStyle=elbowEdgeStyle;elbow=vertical;" edge="1" parent="SU1M1b8zU2zZWcLPuGnF-1">
          <mxGeometry width="50" height="50" relative="1" as="geometry">
            <mxPoint x="407" y="548" as="sourcePoint" />
            <mxPoint x="635" y="624" as="targetPoint" />
            <Array as="points">
              <mxPoint x="520" y="570" />
              <mxPoint x="410" y="574" />
              <mxPoint x="497" y="571" />
            </Array>
          </mxGeometry>
        </mxCell>
        <mxCell id="SU1M1b8zU2zZWcLPuGnF-15" value="" style="shape=flexArrow;endArrow=classic;html=1;strokeColor=#666666;strokeWidth=3;fontFamily=Tahoma;fontSize=18;fontColor=#FFFFFF;fillColor=#f5f5f5;labelPosition=right;verticalLabelPosition=middle;align=left;verticalAlign=middle;labelBackgroundColor=none;width=8;rounded=1;edgeStyle=elbowEdgeStyle;elbow=vertical;" parent="SU1M1b8zU2zZWcLPuGnF-1" edge="1">
          <mxGeometry width="50" height="50" relative="1" as="geometry">
            <mxPoint x="407" y="548" as="sourcePoint" />
            <mxPoint x="179" y="624" as="targetPoint" />
            <Array as="points">
              <mxPoint x="294" y="570" />
              <mxPoint x="404" y="574" />
              <mxPoint x="317" y="571" />
            </Array>
          </mxGeometry>
        </mxCell>
        <mxCell id="t5xxbvdJP_GBm4t3CaKM-1" value="" style="shape=flexArrow;endArrow=classic;html=1;strokeColor=#666666;strokeWidth=3;fontFamily=Tahoma;fontSize=20;fontColor=#FFFFFF;fillColor=#f5f5f5;labelPosition=right;verticalLabelPosition=middle;align=left;verticalAlign=middle;labelBackgroundColor=none;spacingBottom=4;width=8;" edge="1" parent="SU1M1b8zU2zZWcLPuGnF-1">
          <mxGeometry x="0.0667" y="122" width="50" height="50" relative="1" as="geometry">
            <mxPoint x="407" y="548" as="sourcePoint" />
            <mxPoint x="407" y="624" as="targetPoint" />
            <mxPoint as="offset" />
          </mxGeometry>
        </mxCell>
        <mxCell id="t5xxbvdJP_GBm4t3CaKM-4" value="" style="rounded=0;whiteSpace=wrap;html=1;strokeColor=#F5F5F5;fillColor=#F5F5F5;" vertex="1" parent="SU1M1b8zU2zZWcLPuGnF-1">
          <mxGeometry x="397" y="567" width="20" height="6" as="geometry" />
        </mxCell>
        <mxCell id="t5xxbvdJP_GBm4t3CaKM-7" value="" style="rounded=0;whiteSpace=wrap;html=1;strokeColor=#F5F5F5;fillColor=#F5F5F5;rotation=90;" vertex="1" parent="SU1M1b8zU2zZWcLPuGnF-1">
          <mxGeometry x="283" y="576" width="20" height="6" as="geometry" />
        </mxCell>
        <mxCell id="t5xxbvdJP_GBm4t3CaKM-8" value="" style="rounded=0;whiteSpace=wrap;html=1;strokeColor=#F5F5F5;fillColor=#F5F5F5;rotation=90;" vertex="1" parent="SU1M1b8zU2zZWcLPuGnF-1">
          <mxGeometry x="511" y="576" width="20" height="6" as="geometry" />
        </mxCell>
        <mxCell id="t5xxbvdJP_GBm4t3CaKM-9" value="&lt;font color=&quot;#000000&quot;&gt;Optimized&lt;br&gt;C++/CUDA&lt;br&gt;&lt;/font&gt;" style="shape=note;whiteSpace=wrap;html=1;backgroundOutline=1;darkOpacity=0.05;rounded=0;labelBackgroundColor=none;strokeColor=#000000;strokeWidth=2;fillColor=#ffffff;fontFamily=Tahoma;fontSize=18;fontColor=#FFFFFF;align=center;verticalAlign=bottom;size=16;" vertex="1" parent="SU1M1b8zU2zZWcLPuGnF-1">
          <mxGeometry x="357" y="728" width="100" height="65" as="geometry" />
        </mxCell>
        <mxCell id="t5xxbvdJP_GBm4t3CaKM-10" value="" style="shape=flexArrow;endArrow=classic;html=1;strokeColor=#666666;strokeWidth=3;fontFamily=Tahoma;fontSize=18;fontColor=#FFFFFF;fillColor=#f5f5f5;labelPosition=right;verticalLabelPosition=middle;align=left;verticalAlign=middle;labelBackgroundColor=none;width=8;" edge="1" parent="SU1M1b8zU2zZWcLPuGnF-1">
          <mxGeometry width="50" height="50" relative="1" as="geometry">
            <mxPoint x="407" y="680" as="sourcePoint" />
            <mxPoint x="407" y="725" as="targetPoint" />
          </mxGeometry>
        </mxCell>
        <mxCell id="t5xxbvdJP_GBm4t3CaKM-11" value="" style="shape=flexArrow;endArrow=classic;html=1;strokeColor=#666666;strokeWidth=3;fontFamily=Tahoma;fontSize=18;fontColor=#FFFFFF;fillColor=#f5f5f5;labelPosition=right;verticalLabelPosition=middle;align=left;verticalAlign=middle;labelBackgroundColor=none;width=8;" edge="1" parent="SU1M1b8zU2zZWcLPuGnF-1">
          <mxGeometry width="50" height="50" relative="1" as="geometry">
            <mxPoint x="407" y="796" as="sourcePoint" />
            <mxPoint x="407" y="841" as="targetPoint" />
          </mxGeometry>
        </mxCell>
        <mxCell id="t5xxbvdJP_GBm4t3CaKM-15" value="&lt;font color=&quot;#000000&quot; style=&quot;font-size: 20px;&quot;&gt;&amp;nbsp; &amp;nbsp;Bindings&lt;/font&gt;" style="shape=flexArrow;endArrow=classic;html=1;strokeColor=#666666;strokeWidth=3;fontFamily=Tahoma;fontSize=20;fontColor=#FFFFFF;fillColor=#f5f5f5;labelPosition=right;verticalLabelPosition=middle;align=left;verticalAlign=middle;labelBackgroundColor=none;width=8;" edge="1" parent="SU1M1b8zU2zZWcLPuGnF-1">
          <mxGeometry x="0.0667" y="8" width="50" height="50" relative="1" as="geometry">
            <mxPoint x="635" y="796" as="sourcePoint" />
            <mxPoint x="635" y="841" as="targetPoint" />
            <mxPoint as="offset" />
          </mxGeometry>
        </mxCell>
      </root>
    </mxGraphModel>
  </diagram>
</mxfile>
